<?xml version="1.0" encoding="UTF-8" standalone="no"?>
<svg
   xmlns:dc="http://purl.org/dc/elements/1.1/"
   xmlns:cc="http://creativecommons.org/ns#"
   xmlns:rdf="http://www.w3.org/1999/02/22-rdf-syntax-ns#"
   xmlns:svg="http://www.w3.org/2000/svg"
   xmlns="http://www.w3.org/2000/svg"
   xmlns:sodipodi="http://sodipodi.sourceforge.net/DTD/sodipodi-0.dtd"
   xmlns:inkscape="http://www.inkscape.org/namespaces/inkscape"
   version="1.1"
   viewBox="0 0 362 76"
   id="svg4"
   sodipodi:docname="en_david-revoy_title.svg"
   inkscape:version="0.92.3 (2405546, 2018-03-11)">
  <metadata
     id="metadata10">
    <rdf:RDF>
      <cc:Work
         rdf:about="">
        <dc:format>image/svg+xml</dc:format>
        <dc:type
           rdf:resource="http://purl.org/dc/dcmitype/StillImage" />
        <dc:title></dc:title>
      </cc:Work>
    </rdf:RDF>
  </metadata>
  <defs
     id="defs8" />
  <sodipodi:namedview
     pagecolor="#ffffff"
     bordercolor="#666666"
     borderopacity="1"
     objecttolerance="10"
     gridtolerance="10"
     guidetolerance="10"
     inkscape:pageopacity="0"
     inkscape:pageshadow="2"
     inkscape:window-width="1920"
     inkscape:window-height="1025"
     id="namedview6"
     showgrid="false"
     inkscape:zoom="2.2683331"
     inkscape:cx="182.60105"
     inkscape:cy="22.115444"
     inkscape:window-x="0"
     inkscape:window-y="26"
     inkscape:window-maximized="1"
     inkscape:current-layer="svg4" />
  <g
     aria-label="David Revoy"
     style="font-style:normal;font-variant:normal;font-weight:normal;font-stretch:normal;line-height:0%;font-family:Lavi;-inkscape-font-specification:Lavi;text-align:center;letter-spacing:0px;word-spacing:0px;text-anchor:middle;fill:#3e78a5;fill-opacity:1;stroke:none"
     id="text4246"
     transform="translate(-2.982805,-1.7634095)">
    <path
       d="m 106.64327,23.868191 c -0.99,0 -1.215,0.315 -1.215,0.855 v 30.645 h 5.625 c 5.535,0 8.775,-4.185 8.775,-17.37 0,-10.935 -2.925,-14.13 -8.82,-14.13 z m 9,13.77 c 0,12.465 -2.205,14.265 -4.545,14.265 h -2.025 v -24.66 h 2.07 c 3.015,0 4.5,2.07 4.5,10.395 z"
       style="font-style:normal;font-variant:normal;font-weight:normal;font-stretch:normal;font-size:45px;line-height:1.20000005;font-family:'Yanone Kaffeesatz';-inkscape-font-specification:'Yanone Kaffeesatz';fill:#3e78a5;fill-opacity:1"
       id="path833"
       inkscape:connector-curvature="0" />
    <path
       d="m 122.20062,34.893191 c 0,0.54 0.09,1.35 0.495,2.07 1.305,-0.54 3.69,-0.99 5.94,-0.99 1.8,0 2.79,0.54 2.79,2.655 v 3.555 c -0.9,-0.45 -2.295,-0.585 -3.285,-0.585 -3.015,0 -5.985,1.125 -5.985,7.38 0,6.165 3.15,6.885 6.435,6.84 2.925,0 5.04,-0.81 6.255,-1.53 0.225,-3.42 0.27,-8.82 0.27,-13.995 v -2.385 c 0,-4.05 -1.71,-5.49 -5.58,-5.49 -3.42,0 -6.075,0.72 -6.84,1.215 -0.36,0.27 -0.495,0.765 -0.495,1.26 z m 9.225,9.855 c 0,2.43 0,5.76 -0.135,7.245 -0.405,0.405 -1.395,0.765 -2.385,0.765 -1.755,0 -2.925,-0.585 -2.925,-3.87 0,-3.915 1.53,-4.545 3.33,-4.545 0.63,0 1.53,0.135 2.115,0.405 z"
       style="font-style:normal;font-variant:normal;font-weight:normal;font-stretch:normal;font-size:45px;line-height:1.20000005;font-family:'Yanone Kaffeesatz';-inkscape-font-specification:'Yanone Kaffeesatz';fill:#3e78a5;fill-opacity:1"
       id="path835"
       inkscape:connector-curvature="0" />
    <path
       d="m 142.15882,53.433191 c 0.315,1.26 0.765,2.205 1.62,2.205 0.585,0 1.89,0 2.565,-0.135 l 5.175,-22.635 c -3.69,0 -3.735,0 -3.87,0.81 l -1.215,6.345 c -0.9,4.725 -1.665,11.43 -1.665,11.43 h -0.09 c 0,0 -0.81,-6.705 -1.755,-11.385 l -1.44,-7.2 c -4.005,0 -4.14,0 -3.915,1.125 z"
       style="font-style:normal;font-variant:normal;font-weight:normal;font-stretch:normal;font-size:45px;line-height:1.20000005;font-family:'Yanone Kaffeesatz';-inkscape-font-specification:'Yanone Kaffeesatz';fill:#3e78a5;fill-opacity:1"
       id="path837"
       inkscape:connector-curvature="0" />
    <path
       d="m 158.03257,32.868191 c -2.97,0 -3.735,0 -3.735,1.665 v 20.835 c 3.69,0 3.735,0 3.735,-0.72 z m -3.69,-7.155 c 0,2.115 0.675,2.835 1.845,2.835 1.395,0 2.07,-1.08 2.07,-2.925 0.045,-1.89 -0.405,-2.61 -1.8,-2.61 -1.44,0 -2.07,1.08 -2.115,2.7 z"
       style="font-style:normal;font-variant:normal;font-weight:normal;font-stretch:normal;font-size:45px;line-height:1.20000005;font-family:'Yanone Kaffeesatz';-inkscape-font-specification:'Yanone Kaffeesatz';fill:#3e78a5;fill-opacity:1"
       id="path839"
       inkscape:connector-curvature="0" />
    <path
       d="m 171.70273,51.858191 c -0.72,0.495 -1.665,0.675 -2.655,0.675 -2.115,0 -3.375,-1.26 -3.375,-8.01 0,-7.38 1.98,-8.91 3.96,-8.91 0.945,0 1.485,0.135 2.07,0.585 z m 0,-18.54 c -0.765,-0.585 -1.8,-0.9 -3.195,-0.9 -3.87,0 -6.93,3.6 -6.93,12.51 0,9.765 3.42,10.89 7.335,10.89 2.79,0 4.95,-0.63 6.435,-1.35 v -32.175 c -2.97,0 -3.645,0 -3.645,1.665 z"
       style="font-style:normal;font-variant:normal;font-weight:normal;font-stretch:normal;font-size:45px;line-height:1.20000005;font-family:'Yanone Kaffeesatz';-inkscape-font-specification:'Yanone Kaffeesatz';fill:#3e78a5;fill-opacity:1"
       id="path841"
       inkscape:connector-curvature="0" />
    <path
       d="m 186.50632,55.368191 c 3.6,0 3.645,0 3.645,-0.72 v -12.06 h 1.575 c 0.27,0 0.585,0 0.9,-0.045 1.08,1.485 3.195,5.22 3.69,12.825 0.81,0.045 1.575,0.09 2.16,0.09 1.71,0 1.845,-0.225 1.845,-0.9 -0.45,-7.11 -2.835,-11.115 -4.23,-12.96 2.34,-1.305 3.915,-4.005 3.915,-8.82 0,-6.255 -2.61,-8.91 -8.28,-8.91 h -4.455 c -0.765,0 -0.765,0.765 -0.765,0.765 z m 9.45,-22.77 c 0,4.77 -1.305,6.615 -3.825,6.615 h -1.98 v -12.15 h 2.25 c 2.655,0 3.555,2.115 3.555,5.535 z"
       style="font-style:normal;font-variant:normal;font-weight:normal;font-stretch:normal;font-size:45px;line-height:1.20000005;font-family:'Yanone Kaffeesatz';-inkscape-font-specification:'Yanone Kaffeesatz';fill:#3e78a5;fill-opacity:1"
       id="path843"
       inkscape:connector-curvature="0" />
    <path
       d="m 210.10319,32.418191 c -3.96,0 -7.965,1.62 -7.965,12.87 0,8.775 3.015,10.53 7.2,10.53 3.375,0 6.21,-1.08 6.21,-2.475 0,-0.72 -0.09,-1.8 -0.315,-2.475 -1.53,0.855 -3.33,1.395 -5.13,1.395 -2.745,0 -4.005,-1.26 -4.185,-6.03 2.16,0 6.3,-0.135 9.405,-0.72 0.36,-1.62 0.495,-3.87 0.495,-5.85 0,-4.86 -1.935,-7.245 -5.715,-7.245 z m -0.405,3.195 c 1.935,0 2.52,1.215 2.565,4.455 0,0.855 -0.045,1.89 -0.225,2.7 -1.575,0.45 -4.365,0.54 -6.075,0.495 0.27,-6.075 1.89,-7.65 3.735,-7.65 z"
       style="font-style:normal;font-variant:normal;font-weight:normal;font-stretch:normal;font-size:45px;line-height:1.20000005;font-family:'Yanone Kaffeesatz';-inkscape-font-specification:'Yanone Kaffeesatz';fill:#3e78a5;fill-opacity:1"
       id="path845"
       inkscape:connector-curvature="0" />
    <path
       d="m 222.40296,53.433191 c 0.315,1.26 0.765,2.205 1.62,2.205 0.585,0 1.89,0 2.565,-0.135 l 5.175,-22.635 c -3.69,0 -3.735,0 -3.87,0.81 l -1.215,6.345 c -0.9,4.725 -1.665,11.43 -1.665,11.43 h -0.09 c 0,0 -0.81,-6.705 -1.755,-11.385 l -1.44,-7.2 c -4.005,0 -4.14,0 -3.915,1.125 z"
       style="font-style:normal;font-variant:normal;font-weight:normal;font-stretch:normal;font-size:45px;line-height:1.20000005;font-family:'Yanone Kaffeesatz';-inkscape-font-specification:'Yanone Kaffeesatz';fill:#3e78a5;fill-opacity:1"
       id="path847"
       inkscape:connector-curvature="0" />
    <path
       d="m 232.6728,44.118191 c 0,10.125 2.43,11.7 7.065,11.7 4.815,0 7.38,-3.465 7.38,-11.835 0,-9.135 -2.25,-11.565 -6.975,-11.565 -4.725,0 -7.47,3.465 -7.47,11.7 z m 3.96,0.09 c 0,-7.02 1.395,-8.595 3.375,-8.595 2.115,0 3.15,1.26 3.15,8.415 0,7.02 -1.395,8.685 -3.33,8.685 -2.07,0 -3.195,-1.08 -3.195,-8.505 z"
       style="font-style:normal;font-variant:normal;font-weight:normal;font-stretch:normal;font-size:45px;line-height:1.20000005;font-family:'Yanone Kaffeesatz';-inkscape-font-specification:'Yanone Kaffeesatz';fill:#3e78a5;fill-opacity:1"
       id="path849"
       inkscape:connector-curvature="0" />
    <path
       d="m 253.71734,56.088191 c -0.675,3.69 -1.89,4.86 -3.285,4.86 -1.035,0 -2.25,-0.315 -2.835,-0.72 -0.36,0.495 -0.54,1.395 -0.54,2.07 0,1.035 0.945,1.755 3.645,1.755 3.285,0 4.95,-1.755 6.3,-7.47 l 5.535,-23.715 c -3.735,0 -3.78,0 -3.96,1.08 l -1.98,9.585 c -0.63,3.51 -1.035,7.605 -1.08,8.01 -0.09,-0.585 -0.54,-4.635 -1.215,-7.965 l -2.43,-10.71 c -3.825,0 -3.825,0 -3.555,0.99 z"
       style="font-style:normal;font-variant:normal;font-weight:normal;font-stretch:normal;font-size:45px;line-height:1.20000005;font-family:'Yanone Kaffeesatz';-inkscape-font-specification:'Yanone Kaffeesatz';fill:#3e78a5;fill-opacity:1"
       id="path851"
       inkscape:connector-curvature="0" />
  </g>
</svg>
