<?xml version="1.0" encoding="UTF-8" standalone="no"?>
<svg
   xmlns:dc="http://purl.org/dc/elements/1.1/"
   xmlns:cc="http://creativecommons.org/ns#"
   xmlns:rdf="http://www.w3.org/1999/02/22-rdf-syntax-ns#"
   xmlns:svg="http://www.w3.org/2000/svg"
   xmlns="http://www.w3.org/2000/svg"
   height="46.201569"
   width="224.89038"
   id="svg4"
   viewBox="0 0 224.89038 46.201568"
   version="1.1">
  <metadata
     id="metadata10">
    <rdf:RDF>
      <cc:Work
         rdf:about="">
        <dc:format>image/svg+xml</dc:format>
        <dc:type
           rdf:resource="http://purl.org/dc/dcmitype/StillImage" />
        <dc:title></dc:title>
      </cc:Work>
    </rdf:RDF>
  </metadata>
  <defs
     id="defs8" />
  <path
     style="fill:#301b0b;stroke-width:0.62568974"
     id="path2"
     d="m 38.368524,45.699307 c -1.45786,-0.869709 -1.220097,-3.284872 0.56875,-3.372468 0.894735,-1.464114 0.33662,-3.535147 0.505556,-5.249537 -0.238387,-1.119984 0.558115,-3.00331 -0.518071,-3.622743 -0.951048,0.382922 -3.810451,-1.626793 -1.670591,-1.595509 1.401546,0.166434 2.634153,-0.757084 2.139858,-2.246227 -0.09323,-3.034594 0.285942,-6.125502 -0.10199,-9.135069 -0.150791,-1.701876 -2.552814,-0.719543 -3.303643,-1.389031 0.932279,-1.808245 3.222305,-2.208684 4.930435,-3.115935 1.507915,0.663232 1.852043,2.358851 3.816708,1.745675 2.934485,0.0617 5.950311,1.608023 7.758552,3.916816 1.770703,3.028339 -0.0354,6.82002 -2.421418,8.947365 -2.058518,2.01472 -4.899151,2.853144 -7.570845,3.722853 0.112001,2.102317 -0.219618,4.392342 0.162053,6.382034 1.113729,1.338976 3.053366,0.819655 4.567536,1.145012 1.295177,-0.963561 4.479938,-0.164556 1.420313,0.688259 -1.32646,1.532942 -3.453804,1.313948 -4.924178,2.584099 -1.676848,0.249025 -3.591457,1.645563 -5.168195,0.732057 l -0.172064,-0.151418 -8.77e-4,-7.5e-4 1.6e-4,-4.1e-5 z m 6.382032,-15.454538 c 2.527788,-1.282663 5.030545,-3.347438 5.818915,-6.15053 0.356017,-2.371362 -2.502758,-3.334926 -4.411112,-3.078392 -1.182554,0.0027 -2.921972,0.09511 -3.522633,1.15127 v 8.44681 c 0.719544,0.638204 1.401545,-0.06882 2.11483,-0.338497 z m 10.574156,15.704813 c -1.370259,-0.669488 -1.920867,-3.022081 -0.09386,-3.422522 1.501655,-0.650718 0.544976,-2.671696 0.813394,-3.941847 v -4.780268 c -3.034593,0.268422 -3.216045,-1.507912 -0.14078,-1.55171 0.326611,-2.352593 0.049,-5.04306 0.14078,-7.508277 -0.19709,-1.670592 0.444869,-3.541404 -0.421087,-5.049316 -1.582995,-0.232757 -5.218253,-0.234007 -1.764446,-1.864556 1.43283,-0.544975 4.248433,-3.028337 5.074344,-0.61693 0.650717,1.313949 3.247331,0.0331 4.573793,0.857195 2.602869,0.750828 5.624951,2.38388 6.319465,5.205738 0.539969,2.946999 -1.276406,5.66875 -3.28487,7.633415 -1.53294,-0.719543 -1.220096,1.676849 -2.740523,1.839529 -1.539194,0.563746 -3.090905,1.170039 -4.636359,1.589252 0.108866,2.09606 -0.21336,4.361057 0.157047,6.382034 1.414059,1.514169 3.904305,0.598159 5.731319,0.850939 2.584099,0.0408 -1.820758,1.226352 -2.415164,2.03349 -1.332717,0.938536 -2.784317,2.039749 -4.529992,2.23997 -0.825911,0.184578 -2.008464,0.624437 -2.765548,0.12576 z m 5.881484,-15.579674 c 2.50276,-1.257636 4.867865,-3.228559 5.962824,-5.862713 0.688258,-1.852041 -1.088701,-3.391235 -2.834374,-3.441292 -1.55171,-0.270299 -3.560175,-0.185204 -4.792785,0.800881 -0.750829,1.101215 -0.09698,2.728009 -0.292823,4.035701 0.14391,1.55171 -0.22337,3.291126 0.244646,4.723956 0.356643,0.700772 1.295178,-0.28156 1.720646,-0.260913 z m 49.992614,11.199846 c -2.25875,-0.489288 -4.2109,-2.64041 -3.74788,-5.024286 0.23275,-1.958411 1.85829,-3.297387 3.14722,-4.661391 -0.72582,-0.988589 -0.73207,-2.271254 -0.94481,-3.109676 0.6257,-0.96982 -0.96981,-1.883328 0.0707,-3.097167 0.85093,-2.352592 3.74162,-4.41111 6.14427,-2.903198 1.8145,0.800881 3.29739,3.028337 2.26499,4.967977 -0.10887,2.077287 -4.14832,3.616485 -2.6842,5.324617 0.73206,0.570632 2.73426,3.841736 2.67794,1.207582 -1.10745,0.335996 -2.50274,-1.257636 -1.38903,-2.052262 2.64667,-1.113729 5.46852,-1.201323 8.25911,-1.301435 1.34524,0.284689 -2.03974,2.540299 -2.65291,3.12845 -2.12109,-0.350388 -1.28268,1.545452 -1.96469,2.759291 -0.41606,1.426572 3.34121,2.102318 0.99486,3.923075 -1.5392,1.470369 -3.54142,-2.114831 -5.08062,0.1195 -1.60175,0.592528 -3.42251,1.464115 -5.11812,0.713286 z m 3.49759,-3.491348 c 1.78948,-0.592529 -0.67573,-1.820757 -1.20757,-2.609125 -1.01362,-2.077291 -2.66543,0.135155 -3.09091,1.338975 0.87596,1.326461 2.36512,1.945894 3.86676,1.476626 l 0.42798,-0.207103 z m -0.76959,-8.884795 c 1.24512,-0.7258 2.49023,-2.52153 0.9573,-3.629 -1.82075,-1.251378 -3.53514,1.326462 -2.97203,3.022081 0.28408,1.545455 0.91352,1.939638 2.01473,0.607545 z m 25.59072,8.446812 c -5.08686,-0.663232 -9.13508,-5.237023 -9.51049,-10.32388 -0.7258,-3.184759 0.76333,-6.444603 1.53295,-9.447915 1.86454,-4.899151 5.06183,-9.5730533 9.51046,-12.4512254 1.40154,-0.9948466 3.00957,-1.1137276 4.67389,-1.0011035 1.24513,-0.189584 4.00443,2.4839886 3.81047,0.1232614 -0.13137,-1.5955089 1.54545,-1.5579674 2.59036,-1.0073605 1.20132,0.4617591 2.63415,1.3514898 2.12734,2.8531451 0.42233,1.238865 -2.40265,2.4339327 -0.4042,2.7092366 1.09495,1.7644443 -0.19082,4.6050763 -0.22775,6.7574483 -0.6382,2.121088 -0.50494,4.830325 -1.92086,6.569742 -0.29346,-1.145012 -0.49617,-2.709237 -0.74456,-4.023185 0.10821,-3.159733 -1.1638,-6.13176 -2.64043,-8.8847929 -0.94478,-1.7707027 -2.92822,-1.3076926 -4.20463,-0.079468 -4.92418,3.6289999 -7.38313,9.6356229 -9.13507,15.2668309 -0.49617,1.188808 0.11822,2.728008 -1.03239,3.603972 0.85721,1.094958 1.64557,2.233712 2.49651,3.341183 1.00736,1.414059 2.72176,1.795729 4.3548,1.489142 2.0773,0.09887 3.94183,-1.320205 5.86272,-1.626793 0.9135,-0.529961 2.17738,-1.188811 3.27235,-1.670591 1.38278,-1.251381 2.53404,-2.509018 4.19837,-3.591461 0.33473,-0.623185 1.62052,-2.915713 1.827,-1.351489 -0.67573,2.609126 -1.42656,5.418473 -3.61021,7.195431 -0.63195,1.251381 -2.30255,0.589401 -2.52777,2.014722 -0.7446,1.276407 -2.40893,1.783215 -3.61651,2.590356 -2.12108,0.813396 -4.37983,1.332717 -6.69488,0.957305 z M 2.491474,35.200233 C 1.0711584,34.699681 0.0825685,32.88518 0.49552371,31.508664 1.0523875,30.194715 3.6239722,31.383526 3.3736965,29.506458 2.604098,27.691956 5.0630587,27.441681 4.0494414,26.31544 2.7730345,25.439474 3.6865413,23.499834 3.4112379,22.123317 v -4.630104 c 2.8406311,-0.187706 -0.3441294,-1.877069 0,-3.191015 0.012518,-2.315054 0.481781,-4.7552437 0.056312,-6.9451577 C 2.5853275,6.2307993 0.52680823,6.4810752 0.2953031,4.6978594 -0.29284524,3.4652508 -0.06759703,1.6382368 1.5654533,1.4567866 5.0004896,0.13658144 8.6983159,-0.10743776 12.327316,0.03647134 c 3.941845,-0.1001119 8.071397,1.60176546 10.073604,5.11814146 2.046005,2.9469991 3.44755,7.0077242 1.470372,10.3864482 -2.008465,3.998158 -6.200586,6.382036 -10.261313,8.00883 -1.539196,1.614281 -6.3194649,0.351637 -5.9065098,3.353695 0.088223,1.201325 -0.5205738,3.266102 1.2513799,3.353699 0.9698179,0.650716 2.1273449,0.382921 3.2660989,0.82591 1.313949,0.256534 6.820018,-0.850938 5.893998,0.424842 -2.352592,0.888479 -4.74273,2.214942 -7.195432,2.440191 -2.5215291,1.232609 -5.5561242,1.651821 -8.3216728,1.301436 l -0.1282672,-0.04824 0.00135,1.89e-4 z M 13.253336,19.120008 c 0.900995,-1.001104 3.090908,0.401068 2.903202,-1.370262 -0.02816,-1.351489 2.09606,-0.02052 1.532939,-1.870811 1.714392,-1.902098 3.553917,-4.167094 3.08465,-6.8825875 C 20.441261,6.5061027 18.052378,4.7354009 15.580902,4.7103733 14.066733,4.1616434 12.108325,5.8616421 10.963312,4.50327 9.4428867,3.4395975 9.7056764,6.6431285 8.1101675,6.9309455 7.7916915,11.191893 7.8749083,15.440326 7.859266,19.757586 c 1.0136176,1.207581 2.702979,-0.09386 4.023185,-0.09698 0.465512,-0.143907 0.913507,-0.355391 1.370259,-0.524328 z m 13.577467,15.704811 c -2.096059,0.0199 -3.46632,-1.695618 -3.904303,-3.578946 -0.875966,-1.927124 -0.688259,-4.167093 -0.526205,-6.231869 0.479279,-3.303642 2.37762,-6.507173 5.055573,-8.509379 1.470369,-0.813397 3.347439,-1.714391 4.799039,-0.387303 2.208685,1.395289 3.003312,4.066982 2.72175,6.569742 0.136408,1.364004 0.02483,3.403753 -1.839527,3.247329 -2.521529,0.907251 -6.075445,0.675746 -8.008828,2.477732 -0.529334,1.282665 0.813397,3.466321 2.296281,3.441293 2.584098,0.09136 4.573793,-2.227456 6.820018,-2.903199 0.738315,1.476627 -1.06993,2.302537 -1.720645,3.040851 0.615678,1.770702 -1.664336,1.87707 -2.746779,2.52153 -0.96982,0.198343 -1.945895,0.483658 -2.940742,0.282813 z m 1.376519,-10.636725 c 1.282661,-0.472395 3.547659,-0.247773 3.885532,-1.870813 -0.147662,-1.320205 0.471144,-3.291127 -0.80714,-4.060727 -1.970922,0.102619 -3.303642,2.239969 -4.529994,3.59146 -1.301434,1.614279 -2.321308,4.179609 0.96982,2.452705 l 0.479902,-0.108249 z m 45.675347,10.38645 c -2.346335,-0.606918 -2.728006,-3.334927 -3.372465,-5.293335 -0.03616,-2.771807 -0.165809,-5.668749 1.332718,-8.133966 1.389031,-2.815604 3.89179,-5.606182 7.195431,-5.743832 2.365108,0.963561 4.398599,3.291126 4.023186,5.975337 -0.190838,1.482883 0.800883,3.904302 -1.126242,4.47368 -3.078393,0.669488 -6.319468,1.1325 -9.13507,2.502759 -0.123889,1.457858 0.192713,3.697827 2.108574,3.535149 1.470371,0.236508 2.759292,-0.444866 4.073239,-0.988591 1.176299,0.601914 1.626792,-1.852042 3.04711,-2.03975 0.982333,0.177696 3.460066,-2.365106 2.521529,-0.180197 -1.132497,2.077288 -2.47773,4.260946 -4.855353,5.086856 -1.019873,0.522452 -2.446446,1.376518 -3.172246,0.289694 -0.982333,-0.220243 -1.639306,1.270152 -2.659181,0.521826 z m 2.327566,-10.323883 c 1.670591,-0.453622 4.792783,-0.436103 4.085754,-2.997053 0.05514,-1.063671 0.262164,-3.197274 -1.313949,-2.95951 -1.063672,0.568125 -2.146114,1.12624 -3.134704,1.439084 0.187708,1.570482 -1.676849,2.821862 -2.189913,4.398602 -0.588151,1.651818 1.833268,-0.108867 2.546556,0.121383 z m 90.099305,10.44902 c -1.13875,-0.03141 -0.62068,-2.315051 -1.94589,-1.376518 -2.34008,0.994848 -5.29333,2.083547 -7.69598,0.713286 -2.12107,-1.464113 -1.52669,-4.617589 -0.13885,-6.382034 1.38278,-2.002207 3.92309,-2.790575 6.05669,-3.741625 1.16377,-0.30346 3.30364,-0.416085 2.57157,-2.152373 -0.0887,-1.182553 -0.17457,-3.216046 -1.86454,-2.771804 -2.25876,-0.206479 -4.11078,1.626793 -5.81268,2.878171 -2.03972,2.671695 -0.59752,-1.633048 0.24779,-2.415162 1.79572,-2.333823 5.29957,-4.041955 8.00883,-2.264995 2.70924,1.939638 2.03349,5.781372 2.35258,8.634518 -0.90098,2.815604 2.25875,0.638202 0.44425,3.478833 -2.02725,3.328671 3.34744,-1.032387 3.0033,0.50806 -1.25763,1.001104 -0.75082,2.815604 -1.88957,3.779167 -1.00737,0.596909 -2.17739,1.282664 -3.37873,1.113727 z m -5.16192,-3.284871 c 1.93963,-0.348509 4.8178,-1.420316 4.39857,-3.841734 -0.86968,-0.595657 -1.61427,-1.676847 -2.46521,-0.794627 -1.81449,0.357895 -3.33492,1.59551 -4.51122,2.953256 -1.56421,1.708133 0.84469,2.302538 2.14612,1.764445 l 0.22525,-0.04306 0.20836,-0.03985 z M 87.941919,34.023938 C 87.2912,33.403877 85.895913,31.47738 87.278687,31.133251 c 1.570482,0.214611 2.765544,0.05081 2.277513,-1.839529 0.01283,-1.983438 0.102614,-3.973129 0.461125,-5.906511 -0.26404,-1.307693 0.491793,-3.034594 -0.719537,-3.954358 0.481783,-1.51417 -1.570483,-0.02415 -2.308798,-1.01362 -0.561867,-1.119985 1.345235,-1.50791 2.133601,-1.814498 1.332724,-0.68826 3.610234,-0.489915 3.629006,1.395288 -0.41296,2.202429 1.138755,0.521198 1.795727,-0.382922 0.788368,-0.800882 3.053363,-1.551712 3.485087,-0.10761 1.282665,-0.05106 1.927131,1.445345 2.402659,2.565329 0.75708,1.232608 0.36916,3.510118 -1.188816,3.82922 -0.757081,1.113729 -1.995954,0.644461 -2.803094,-0.151416 -0.66323,-1.326464 1.80825,1.038644 1.920874,-0.850938 0.976072,-1.570481 -0.938536,-3.435036 -2.565331,-2.959513 -2.102321,1.263895 -2.014718,4.423626 -2.552817,6.569743 -0.1145,1.401544 -0.807131,3.359953 0.460515,4.342287 1.17629,0.638203 1.42031,1.201322 2.702976,0.90099 0.769596,0.05451 4.342283,0.362276 2.565331,0.963565 -1.63931,0.217739 -3.397501,0.932277 -5.024287,1.414059 -1.927132,-0.212735 -4.398602,1.057416 -5.969085,-0.09636 l -0.04337,-0.04336 -0.0013,1e-6 z m 83.842411,0.108866 c -1.73316,-1.145014 -0.52621,-2.946999 1.17004,-2.915716 0.66947,-1.351489 0.10258,-3.259842 0.26718,-4.817809 -0.0952,-2.133602 0.11513,-4.354801 -0.17145,-6.444604 -0.61006,-1.107471 -2.50276,-1.939638 -0.16955,-2.264998 2.18991,-2.152373 2.80934,1.676849 3.69781,1.53294 1.03238,-1.18881 2.35887,-2.778063 4.09825,-1.889582 1.80829,0.882222 2.54032,3.097164 1.72068,4.924177 -0.15769,1.71439 -1.10747,2.997056 -2.37763,4.073241 -0.23838,-1.076185 0.63821,-2.427676 0.23402,-3.666542 0.56373,-1.877068 -1.29519,-2.07729 -2.24624,-0.894737 -1.57049,1.877071 -1.27015,4.486196 -1.73942,6.757448 -0.682,2.48399 1.77694,2.740523 3.66655,2.321311 2.0773,0.125758 -1.27015,1.739417 -1.50166,2.796832 -1.75193,1.082443 -4.06073,0.518071 -6.05042,0.88848 -0.31222,0.159553 -0.40356,-0.263416 -0.60254,-0.395435 z m 12.32609,0.145786 c -1.57049,-0.825912 -1.18881,-2.959512 0.57563,-2.896945 1.32648,-0.525579 0.36479,-2.640408 0.6695,-3.835478 -0.12014,-2.677951 0.34789,-5.412215 -0.24778,-8.071397 -0.61193,-0.84468 -3.37872,-1.401544 -0.93227,-1.708133 1.40153,-0.230253 3.0784,-0.982332 3.89179,0.750827 0.0535,2.008466 1.33898,-0.01569 1.89582,-0.738313 1.54548,-1.370262 3.84174,-0.460509 4.60509,1.351491 -0.28156,1.914609 -0.0597,3.998156 -1.51417,5.506068 -1.00736,1.514169 -0.69453,-1.232608 -0.74457,-1.908353 -0.005,-1.119984 -1.95216,-2.72175 -2.42142,-1.170039 -0.90726,2.671695 -1.67686,5.693776 -1.36402,8.509378 0.33664,2.083549 6.16931,-1.163781 3.68533,1.351491 -1.21385,0.64446 -1.1325,2.264997 -2.44645,2.70298 -1.8583,-0.04163 -3.98564,0.738315 -5.65624,0.142033 l 1.5e-4,-1.11e-4 z m 16.39307,0.01223 c -3.27859,-0.919765 -5.03054,-4.62385 -4.61133,-7.883694 0.0572,-3.635255 1.77069,-7.633414 5.42475,-8.947361 2.57156,-1.00736 6.25062,-0.185205 7.19541,2.696722 1.5392,2.853145 1.46413,6.256897 0.46865,9.260208 -1.60804,0.763341 -0.26718,3.059623 -2.50903,4.085754 -1.50789,1.307691 -3.5852,0.926021 -5.42471,0.919763 -0.19085,-0.05239 -0.38232,-0.105109 -0.57314,-0.157047 z m 3.45382,-2.984542 c 2.38386,-0.499926 2.83437,-3.485091 2.73425,-5.556124 -0.2584,-2.23997 0.71328,-4.980491 -2.03974,-5.906511 -1.25765,-0.869711 -3.24734,0.05806 -4.01693,1.27015 -1.05116,1.376517 -1.23261,3.159734 -2.29629,4.45491 0.88849,0.913508 0.47178,2.515273 1.32021,3.61023 0.45926,1.945895 2.45895,2.665439 4.2985,2.127345 z m 12.88919,2.840631 c -2.79682,-1.326461 -2.32129,-4.874123 -2.34633,-7.445707 -0.13196,-1.589252 0.26154,-3.284872 -0.23652,-4.805297 -1.3202,0.185204 -2.81559,-0.009 -3.21603,-1.445343 -0.72581,-1.301434 0.35477,-1.870814 1.52668,-2.346338 1.60176,0.07508 2.39638,-1.051157 1.9897,-2.577841 -0.18583,-1.595509 0.3116,-3.366211 -0.3604,-4.836582 0.71953,-1.1012131 2.03349,0.327862 2.74052,0.800883 1.00735,1.364004 0.34225,3.303642 0.63819,4.911664 0.78837,1.539197 2.55907,-0.644461 3.92932,-0.174566 1.05118,0.0063 2.67173,-1.201325 3.37875,-0.170813 -2.18366,1.557966 -3.80421,3.948103 -6.50717,4.57379 -1.50167,0.675745 -0.43925,2.815605 -0.78838,4.142067 0.1049,1.989693 -0.3604,4.148322 0.28594,6.031649 0.76959,1.370261 2.00221,-0.523703 2.7155,-1.101215 1.13875,-1.582995 3.99815,-3.522631 2.29628,-0.123888 -1.27641,0.882223 -0.45362,1.87707 -1.31395,3.015825 -1.18256,1.482886 -2.89069,2.646667 -4.69894,1.551711 z" />
</svg>
