<svg xmlns:rdf="http://www.w3.org/1999/02/22-rdf-syntax-ns#" xmlns="http://www.w3.org/2000/svg" version="1.1" xmlns:cc="http://creativecommons.org/ns#" xmlns:dc="http://purl.org/dc/elements/1.1/" viewBox="0 0 362 76">
 <path d="m62.6 74.6c-2.33-1.39-1.95-5.25 0.909-5.39 1.43-2.34 0.538-5.65 0.808-8.39-0.381-1.79 0.892-4.8-0.828-5.79-1.52 0.612-6.09-2.6-2.67-2.55 2.24 0.266 4.21-1.21 3.42-3.59-0.149-4.85 0.457-9.79-0.163-14.6-0.241-2.72-4.08-1.15-5.28-2.22 1.49-2.89 5.15-3.53 7.88-4.98 2.41 1.06 2.96 3.77 6.1 2.79 4.69 0.0986 9.51 2.57 12.4 6.26 2.83 4.84-0.0566 10.9-3.87 14.3-3.29 3.22-7.83 4.56-12.1 5.95 0.179 3.36-0.351 7.02 0.259 10.2 1.78 2.14 4.88 1.31 7.3 1.83 2.07-1.54 7.16-0.263 2.27 1.1-2.12 2.45-5.52 2.1-7.87 4.13-2.68 0.398-5.74 2.63-8.26 1.17l-0.275-0.242-0.0014-0.0012 0.000255-0.000066zm10.2-24.7c4.04-2.05 8.04-5.35 9.3-9.83 0.569-3.79-4-5.33-7.05-4.92-1.89 0.0042-4.67 0.152-5.63 1.84v13.5c1.15 1.02 2.24-0.11 3.38-0.541zm16.9 25.1c-2.19-1.07-3.07-4.83-0.15-5.47 2.4-1.04 0.871-4.27 1.3-6.3v-7.64c-4.85 0.429-5.14-2.41-0.225-2.48 0.522-3.76 0.0783-8.06 0.225-12-0.315-2.67 0.711-5.66-0.673-8.07-2.53-0.372-8.34-0.374-2.82-2.98 2.29-0.871 6.79-4.84 8.11-0.986 1.04 2.1 5.19 0.0529 7.31 1.37 4.16 1.2 8.99 3.81 10.1 8.32 0.863 4.71-2.04 9.06-5.25 12.2-2.45-1.15-1.95 2.68-4.38 2.94-2.46 0.901-4.94 1.87-7.41 2.54 0.174 3.35-0.341 6.97 0.251 10.2 2.26 2.42 6.24 0.956 9.16 1.36 4.13 0.0652-2.91 1.96-3.86 3.25-2.13 1.5-4.45 3.26-7.24 3.58-1.32 0.295-3.21 0.998-4.42 0.201zm9.4-24.9c4-2.01 7.78-5.16 9.53-9.37 1.1-2.96-1.74-5.42-4.53-5.5-2.48-0.432-5.69-0.296-7.66 1.28-1.2 1.76-0.155 4.36-0.468 6.45 0.23 2.48-0.357 5.26 0.391 7.55 0.57 1.12 2.07-0.45 2.75-0.417zm79.9 17.9c-3.61-0.782-6.73-4.22-5.99-8.03 0.372-3.13 2.97-5.27 5.03-7.45-1.16-1.58-1.17-3.63-1.51-4.97 1-1.55-1.55-3.01 0.113-4.95 1.36-3.76 5.98-7.05 9.82-4.64 2.9 1.28 5.27 4.84 3.62 7.94-0.174 3.32-6.63 5.78-4.29 8.51 1.17 0.912 4.37 6.14 4.28 1.93-1.77 0.537-4-2.01-2.22-3.28 4.23-1.78 8.74-1.92 13.2-2.08 2.15 0.455-3.26 4.06-4.24 5-3.39-0.56-2.05 2.47-3.14 4.41-0.665 2.28 5.34 3.36 1.59 6.27-2.46 2.35-5.66-3.38-8.12 0.191-2.56 0.947-5.47 2.34-8.18 1.14zm5.59-5.58c2.86-0.947-1.08-2.91-1.93-4.17-1.62-3.32-4.26 0.216-4.94 2.14 1.4 2.12 3.78 3.11 6.18 2.36l0.684-0.331zm-1.23-14.2c1.99-1.16 3.98-4.03 1.53-5.8-2.91-2-5.65 2.12-4.75 4.83 0.454 2.47 1.46 3.1 3.22 0.971zm40.9 13.5c-8.13-1.06-14.6-8.37-15.2-16.5-1.16-5.09 1.22-10.3 2.45-15.1 2.98-7.83 8.09-15.3 15.2-19.9 2.24-1.59 4.81-1.78 7.47-1.6 1.99-0.303 6.4 3.97 6.09 0.197-0.21-2.55 2.47-2.49 4.14-1.61 1.92 0.738 4.21 2.16 3.4 4.56 0.675 1.98-3.84 3.89-0.646 4.33 1.75 2.82-0.305 7.36-0.364 10.8-1.02 3.39-0.807 7.72-3.07 10.5-0.469-1.83-0.793-4.33-1.19-6.43 0.173-5.05-1.86-9.8-4.22-14.2-1.51-2.83-4.68-2.09-6.72-0.127-7.87 5.8-11.8 15.4-14.6 24.4-0.793 1.9 0.189 4.36-1.65 5.76 1.37 1.75 2.63 3.57 3.99 5.34 1.61 2.26 4.35 2.87 6.96 2.38 3.32 0.158 6.3-2.11 9.37-2.6 1.46-0.847 3.48-1.9 5.23-2.67 2.21-2 4.05-4.01 6.71-5.74 0.535-0.996 2.59-4.66 2.92-2.16-1.08 4.17-2.28 8.66-5.77 11.5-1.01 2-3.68 0.942-4.04 3.22-1.19 2.04-3.85 2.85-5.78 4.14-3.39 1.3-7 2.13-10.7 1.53zm-219-3.9c-2.27-0.8-3.85-3.7-3.19-5.9 0.89-2.1 5-0.2 4.6-3.2-1.23-2.9 2.7-3.3 1.08-5.1-2.04-1.4-0.58-4.5-1.02-6.7v-7.4c4.54-0.3-0.55-3 0-5.1 0.02-3.7 0.77-7.6 0.09-11.1-1.41-1.8-4.7-1.4-5.07-4.25-0.94-1.97-0.58-4.89 2.03-5.18 5.49-2.11 11.4-2.5 17.2-2.27 6.3-0.16 12.9 2.56 16.1 8.18 3.27 4.71 5.51 11.2 2.35 16.6-3.21 6.39-9.91 10.2-16.4 12.8-2.46 2.58-10.1 0.562-9.44 5.36 0.141 1.92-0.832 5.22 2 5.36 1.55 1.04 3.4 0.612 5.22 1.32 2.1 0.41 10.9-1.36 9.42 0.679-3.76 1.42-7.58 3.54-11.5 3.9-4.03 1.97-8.88 2.64-13.3 2.08l-0.205-0.0771 0.00218 0.000302zm17.2-25.7c1.44-1.6 4.94 0.641 4.64-2.19-0.045-2.16 3.35-0.0328 2.45-2.99 2.74-3.04 5.68-6.66 4.93-11-0.532-3.98-4.35-6.81-8.3-6.85-2.42-0.877-5.55 1.84-7.38-0.331-2.43-1.7-2.01 3.42-4.56 3.88-0.509 6.81-0.376 13.6-0.401 20.5 1.62 1.93 4.32-0.15 6.43-0.155 0.744-0.23 1.46-0.568 2.19-0.838zm21.7 25.1c-3.35 0.0318-5.54-2.71-6.24-5.72-1.4-3.08-1.1-6.66-0.841-9.96 0.766-5.28 3.8-10.4 8.08-13.6 2.35-1.3 5.35-2.74 7.67-0.619 3.53 2.23 4.8 6.5 4.35 10.5 0.218 2.18 0.0397 5.44-2.94 5.19-4.03 1.45-9.71 1.08-12.8 3.96-0.846 2.05 1.3 5.54 3.67 5.5 4.13 0.146 7.31-3.56 10.9-4.64 1.18 2.36-1.71 3.68-2.75 4.86 0.984 2.83-2.66 3-4.39 4.03-1.55 0.317-3.11 0.773-4.7 0.452zm2.2-17c2.05-0.755 5.67-0.396 6.21-2.99-0.236-2.11 0.753-5.26-1.29-6.49-3.15 0.164-5.28 3.58-7.24 5.74-2.08 2.58-3.71 6.68 1.55 3.92l0.767-0.173zm73 16.6c-3.75-0.97-4.36-5.33-5.39-8.46-0.0578-4.43-0.265-9.06 2.13-13 2.22-4.5 6.22-8.96 11.5-9.18 3.78 1.54 7.03 5.26 6.43 9.55-0.305 2.37 1.28 6.24-1.8 7.15-4.92 1.07-10.1 1.81-14.6 4-0.198 2.33 0.308 5.91 3.37 5.65 2.35 0.378 4.41-0.711 6.51-1.58 1.88 0.962 2.6-2.96 4.87-3.26 1.57 0.284 5.53-3.78 4.03-0.288-1.81 3.32-3.96 6.81-7.76 8.13-1.63 0.835-3.91 2.2-5.07 0.463-1.57-0.352-2.62 2.03-4.25 0.834zm3.72-16.5c2.67-0.725 7.66-0.697 6.53-4.79 0.0881-1.7 0.419-5.11-2.1-4.73-1.7 0.908-3.43 1.8-5.01 2.3 0.3 2.51-2.68 4.51-3.5 7.03-0.94 2.64 2.93-0.174 4.07 0.194zm144 16.7c-1.82-0.0502-0.992-3.7-3.11-2.2-3.74 1.59-8.46 3.33-12.3 1.14-3.39-2.34-2.44-7.38-0.222-10.2 2.21-3.2 6.27-4.46 9.68-5.98 1.86-0.485 5.28-0.665 4.11-3.44-0.142-1.89-0.279-5.14-2.98-4.43-3.61-0.33-6.57 2.6-9.29 4.6-3.26 4.27-0.955-2.61 0.396-3.86 2.87-3.73 8.47-6.46 12.8-3.62 4.33 3.1 3.25 9.24 3.76 13.8-1.44 4.5 3.61 1.02 0.71 5.56-3.24 5.32 5.35-1.65 4.8 0.812-2.01 1.6-1.2 4.5-3.02 6.04-1.61 0.954-3.48 2.05-5.4 1.78zm-8.25-5.25c3.1-0.557 7.7-2.27 7.03-6.14-1.39-0.952-2.58-2.68-3.94-1.27-2.9 0.572-5.33 2.55-7.21 4.72-2.5 2.73 1.35 3.68 3.43 2.82l0.36-0.0688 0.333-0.0637zm-117 4.17c-1.04-0.991-3.27-4.07-1.06-4.62 2.51 0.343 4.42 0.0812 3.64-2.94 0.0204-3.17 0.164-6.35 0.737-9.44-0.422-2.09 0.786-4.85-1.15-6.32 0.77-2.42-2.51-0.0386-3.69-1.62-0.898-1.79 2.15-2.41 3.41-2.9 2.13-1.1 5.77-0.783 5.8 2.23-0.66 3.52 1.82 0.833 2.87-0.612 1.26-1.28 4.88-2.48 5.57-0.172 2.05-0.0816 3.08 2.31 3.84 4.1 1.21 1.97 0.59 5.61-1.9 6.12-1.21 1.78-3.19 1.03-4.48-0.242-1.06-2.12 2.89 1.66 3.07-1.36 1.56-2.51-1.5-5.49-4.1-4.73-3.36 2.02-3.22 7.07-4.08 10.5-0.183 2.24-1.29 5.37 0.736 6.94 1.88 1.02 2.27 1.92 4.32 1.44 1.23 0.0871 6.94 0.579 4.1 1.54-2.62 0.348-5.43 1.49-8.03 2.26-3.08-0.34-7.03 1.69-9.54-0.154l-0.0693-0.0693-0.002 0.000005zm134 0.174c-2.77-1.83-0.841-4.71 1.87-4.66 1.07-2.16 0.164-5.21 0.427-7.7-0.152-3.41 0.184-6.96-0.274-10.3-0.975-1.77-4-3.1-0.271-3.62 3.5-3.44 4.49 2.68 5.91 2.45 1.65-1.9 3.77-4.44 6.55-3.02 2.89 1.41 4.06 4.95 2.75 7.87-0.252 2.74-1.77 4.79-3.8 6.51-0.381-1.72 1.02-3.88 0.374-5.86 0.901-3-2.07-3.32-3.59-1.43-2.51 3-2.03 7.17-2.78 10.8-1.09 3.97 2.84 4.38 5.86 3.71 3.32 0.201-2.03 2.78-2.4 4.47-2.8 1.73-6.49 0.828-9.67 1.42-0.499 0.255-0.645-0.421-0.963-0.632zm19.7 0.233c-2.51-1.32-1.9-4.73 0.92-4.63 2.12-0.84 0.583-4.22 1.07-6.13-0.192-4.28 0.556-8.65-0.396-12.9-0.978-1.35-5.4-2.24-1.49-2.73 2.24-0.368 4.92-1.57 6.22 1.2 0.0855 3.21 2.14-0.0251 3.03-1.18 2.47-2.19 6.14-0.736 7.36 2.16-0.45 3.06-0.0957 6.39-2.42 8.8-1.61 2.42-1.11-1.97-1.19-3.05-0.009-1.79-3.12-4.35-3.87-1.87-1.45 4.27-2.68 9.1-2.18 13.6 0.538 3.33 9.86-1.86 5.89 2.16-1.94 1.03-1.81 3.62-3.91 4.32-2.97-0.0665-6.37 1.18-9.04 0.227l0.00021-0.000176zm26.2 0.0196c-5.24-1.47-8.04-7.39-7.37-12.6 0.0916-5.81 2.83-12.2 8.67-14.3 4.11-1.61 9.99-0.296 11.5 4.31 2.46 4.56 2.34 10 0.749 14.8-2.57 1.22-0.427 4.89-4.01 6.53-2.41 2.09-5.73 1.48-8.67 1.47-0.305-0.0837-0.611-0.168-0.916-0.251zm5.52-4.77c3.81-0.799 4.53-5.57 4.37-8.88-0.413-3.58 1.14-7.96-3.26-9.44-2.01-1.39-5.19 0.0928-6.42 2.03-1.68 2.2-1.97 5.05-3.67 7.12 1.42 1.46 0.754 4.02 2.11 5.77 0.734 3.11 3.93 4.26 6.87 3.4zm20.6 4.54c-4.47-2.12-3.71-7.79-3.75-11.9-0.211-2.54 0.418-5.25-0.378-7.68-2.11 0.296-4.5-0.0146-5.14-2.31-1.16-2.08 0.567-2.99 2.44-3.75 2.56 0.12 3.83-1.68 3.18-4.12-0.297-2.55 0.498-5.38-0.576-7.73 1.15-1.76 3.25 0.524 4.38 1.28 1.61 2.18 0.547 5.28 1.02 7.85 1.26 2.46 4.09-1.03 6.28-0.279 1.68 0.0098 4.27-1.92 5.4-0.273-3.49 2.49-6.08 6.31-10.4 7.31-2.4 1.08-0.702 4.5-1.26 6.62 0.168 3.18-0.576 6.63 0.457 9.64 1.23 2.19 3.2-0.837 4.34-1.76 1.82-2.53 6.39-5.63 3.67-0.198-2.04 1.41-0.725 3-2.1 4.82-1.89 2.37-4.62 4.23-7.51 2.48z" fill="#301b0b"/>
</svg>
