<?xml version="1.0" encoding="UTF-8" standalone="no"?>
<svg
   xmlns:dc="http://purl.org/dc/elements/1.1/"
   xmlns:cc="http://creativecommons.org/ns#"
   xmlns:rdf="http://www.w3.org/1999/02/22-rdf-syntax-ns#"
   xmlns:svg="http://www.w3.org/2000/svg"
   xmlns="http://www.w3.org/2000/svg"
   xmlns:sodipodi="http://sodipodi.sourceforge.net/DTD/sodipodi-0.dtd"
   xmlns:inkscape="http://www.inkscape.org/namespaces/inkscape"
   viewBox="0 0 80 80"
   version="1.1"
   id="svg12"
   sodipodi:docname="logo-g1.svg"
   inkscape:version="0.92.3 (unknown)">
  <metadata
     id="metadata18">
    <rdf:RDF>
      <cc:Work
         rdf:about="">
        <dc:format>image/svg+xml</dc:format>
        <dc:type
           rdf:resource="http://purl.org/dc/dcmitype/StillImage" />
        <dc:title />
      </cc:Work>
    </rdf:RDF>
  </metadata>
  <defs
     id="defs16">
    <linearGradient
       id="gradient-7"
       gradientUnits="userSpaceOnUse"
       x1="-277.81049"
       y1="561.88068"
       x2="-277.81049"
       y2="796.8161"
       gradientTransform="matrix(0.66937615,-0.07372995,0.07372976,0.66937625,391.92343,247.76123)">
      <stop
         style="stop-color: rgb(255, 190, 0);"
         offset="0"
         id="stop28" />
      <stop
         style="stop-color: rgb(214, 120, 32);"
         offset="1"
         id="stop30" />
    </linearGradient>
    <linearGradient
       id="gradient-7-2"
       gradientUnits="userSpaceOnUse"
       x1="-277.81049"
       y1="561.88068"
       x2="-277.81049"
       y2="796.8161"
       gradientTransform="matrix(0.35984243,0.00141991,-8.6511887e-4,0.21927867,-159.19166,375.49385)">
      <stop
         style="stop-color: rgb(255, 190, 0);"
         offset="0"
         id="stop33" />
      <stop
         style="stop-color: rgb(214, 120, 32);"
         offset="1"
         id="stop35" />
    </linearGradient>
  </defs>
  <sodipodi:namedview
     pagecolor="#ffffff"
     bordercolor="#666666"
     borderopacity="1"
     objecttolerance="10"
     gridtolerance="10"
     guidetolerance="10"
     inkscape:pageopacity="0"
     inkscape:pageshadow="2"
     inkscape:window-width="1393"
     inkscape:window-height="748"
     id="namedview14"
     showgrid="false"
     inkscape:zoom="5.1595684"
     inkscape:cx="20.509804"
     inkscape:cy="40.279321"
     inkscape:window-x="318"
     inkscape:window-y="48"
     inkscape:window-maximized="0"
     inkscape:current-layer="svg12" />
  <g
     transform="matrix(0.83012,0,0,0.83012,-135.4,-247.7)"
     id="g10"
     style="fill:#2873b7;fill-opacity:1">
    <path
       style="fill:#2873b7;fill-opacity:1"
       inkscape:connector-curvature="0"
       d="m 259.55,385.57 c 0,5.145 -4.169,9.318 -9.318,9.318 h -77.74 c -5.144,0 -9.318,-4.174 -9.318,-9.318 v -77.74 c 0,-5.145 4.174,-9.318 9.318,-9.318 h 77.74 c 5.149,0 9.318,4.173 9.318,9.318 v 77.74"
       id="path2" />
    <g
       style="fill:#2873b7;fill-opacity:1"
       id="g8" />
  </g>
  <circle
     style="color:#000000;clip-rule:nonzero;display:inline;overflow:visible;visibility:visible;opacity:1;isolation:auto;mix-blend-mode:normal;color-interpolation:sRGB;color-interpolation-filters:linearRGB;solid-color:#000000;solid-opacity:1;vector-effect:none;fill:#ffffff;fill-opacity:1;fill-rule:nonzero;stroke:none;stroke-width:3;stroke-linecap:butt;stroke-linejoin:miter;stroke-miterlimit:4;stroke-dasharray:none;stroke-dashoffset:0;stroke-opacity:1;paint-order:normal;color-rendering:auto;image-rendering:auto;shape-rendering:auto;text-rendering:auto;enable-background:accumulate"
     id="path876"
     cx="40.795757"
     cy="39.131779"
     r="26.438211" />
  <g
     id="macron"
     transform="matrix(0.15493297,0,0,0.15493297,80.356776,-58.383136)"
     style="fill:#2873b7;fill-opacity:1;stroke-width:0.98591352">
    <path
       class="main"
       d="m -226.04393,501.50464 25.82916,20.70367 c -10.93431,13.99836 -27.30534,24.05487 -47.39934,26.26813 -24.87689,2.74011 -49.32586,-7.99963 -64.13729,-28.17352 13.94854,-10.58228 11.24874,-8.25812 26.66534,-19.57721 7.81708,10.64737 20.7207,16.31555 33.85014,14.86938 10.71334,-1.18005 19.42147,-6.58447 25.19199,-14.09045 z"
       style="fill:#2873b7;fill-opacity:1;stroke-width:0.98591352"
       transform="translate(8.7228955e-8,-21.390767)"
       id="path129"
       inkscape:connector-curvature="0" />
  </g>
  <g
     id="G"
     transform="matrix(0.12365587,0,0,0.12365587,72.421195,-40.749846)"
     style="fill:#2873b7;fill-opacity:1;stroke-width:1.23528707">
    <path
       class="G main"
       d="m -248.28295,674.4624 118.32194,0.64454 -1.93363,126.70102 -37.261,-40.48374 c -23.2079,23.79895 -55.72147,39.15155 -93.55331,39.15155 -46.83683,0 -90.11579,-24.98724 -113.53415,-65.54901 -50.4596,-87.39862 12.61487,-196.64667 113.53415,-196.64667 46.35873,0 89.23176,24.47955 112.81076,64.31165 l -54.66439,29.28448 c -12.69412,-19.6886 -34.56584,-31.6889 -58.14637,-31.6889 -53.26288,0 -86.55216,57.65875 -59.92066,103.78576 12.35962,21.40772 35.20123,34.5954 59.92066,34.5954 20.17045,0 37.47648,-8.26886 49.74858,-21.04901 z"
       style="fill:#2873b7;fill-opacity:1;stroke-width:1.23528707"
       transform="translate(7.1302561,2.3767521)"
       id="path140"
       inkscape:connector-curvature="0"
       sodipodi:nodetypes="ccccsssccscscc" />
  </g>
</svg>
