<?xml version="1.0" encoding="UTF-8" standalone="no"?>
<svg
   xmlns:dc="http://purl.org/dc/elements/1.1/"
   xmlns:cc="http://creativecommons.org/ns#"
   xmlns:rdf="http://www.w3.org/1999/02/22-rdf-syntax-ns#"
   xmlns:svg="http://www.w3.org/2000/svg"
   xmlns="http://www.w3.org/2000/svg"
   xmlns:sodipodi="http://sodipodi.sourceforge.net/DTD/sodipodi-0.dtd"
   xmlns:inkscape="http://www.inkscape.org/namespaces/inkscape"
   version="1.1"
   viewBox="0 0 80 80"
   id="svg14"
   sodipodi:docname="logo-paypal.svg"
   inkscape:version="0.92.3 (unknown)">
  <metadata
     id="metadata20">
    <rdf:RDF>
      <cc:Work
         rdf:about="">
        <dc:format>image/svg+xml</dc:format>
        <dc:type
           rdf:resource="http://purl.org/dc/dcmitype/StillImage" />
      </cc:Work>
    </rdf:RDF>
  </metadata>
  <defs
     id="defs18" />
  <sodipodi:namedview
     pagecolor="#ffffff"
     bordercolor="#666666"
     borderopacity="1"
     objecttolerance="10"
     gridtolerance="10"
     guidetolerance="10"
     inkscape:pageopacity="0"
     inkscape:pageshadow="2"
     inkscape:window-width="1295"
     inkscape:window-height="761"
     id="namedview16"
     showgrid="false"
     inkscape:zoom="2.95"
     inkscape:cx="-60.847458"
     inkscape:cy="43.389831"
     inkscape:window-x="0"
     inkscape:window-y="26"
     inkscape:window-maximized="0"
     inkscape:current-layer="svg14" />
  <g
     id="g8"
     style="opacity:0.393;fill:#44a7e8;fill-opacity:1">
    <path
       d="m29.8 67.5 10.6 0.166 2.41-15.6c0.751-0.792 8.73-0.349 10.3-0.365 11.6-0.128 18.5-25.1 4.31-25.7-13.9-0.615-18.5-0.246-20.4-0.166-0.979 0.041-1.33 2.54-1.33 2.54z"
       fill-rule="evenodd"
       fill="#019bde"
       id="path6"
       style="fill:#44a7e8;fill-opacity:1" />
  </g>
  <path
     d="m17.6 62.7 13 0.2 2.95-18.8c0.9-1 10.7-0.4 12.6-0.4 14.1-0.2 22.6-30.2 5.2-31-16.9-0.7-22.6-0.3-24.9-0.2-1.2 0.0494-1.63 3.06-1.63 3.06z"
     fill-opacity=".767"
     fill-rule="evenodd"
     fill="#00115d"
     id="path10"
     style="fill:#44a7e8;fill-opacity:1" />
</svg>
