<?xml version="1.0" encoding="UTF-8" standalone="no"?>
<svg
   xmlns:dc="http://purl.org/dc/elements/1.1/"
   xmlns:cc="http://creativecommons.org/ns#"
   xmlns:rdf="http://www.w3.org/1999/02/22-rdf-syntax-ns#"
   xmlns:svg="http://www.w3.org/2000/svg"
   xmlns="http://www.w3.org/2000/svg"
   xmlns:sodipodi="http://sodipodi.sourceforge.net/DTD/sodipodi-0.dtd"
   xmlns:inkscape="http://www.inkscape.org/namespaces/inkscape"
   viewBox="0 0 80 80"
   version="1.1"
   id="svg12"
   sodipodi:docname="logo-liberapay.svg"
   inkscape:version="0.92.3 (unknown)">
  <metadata
     id="metadata18">
    <rdf:RDF>
      <cc:Work
         rdf:about="">
        <dc:format>image/svg+xml</dc:format>
        <dc:type
           rdf:resource="http://purl.org/dc/dcmitype/StillImage" />
      </cc:Work>
    </rdf:RDF>
  </metadata>
  <defs
     id="defs16" />
  <sodipodi:namedview
     pagecolor="#ffffff"
     bordercolor="#666666"
     borderopacity="1"
     objecttolerance="10"
     gridtolerance="10"
     guidetolerance="10"
     inkscape:pageopacity="0"
     inkscape:pageshadow="2"
     inkscape:window-width="1920"
     inkscape:window-height="1025"
     id="namedview14"
     showgrid="false"
     inkscape:zoom="2.95"
     inkscape:cx="-22.20339"
     inkscape:cy="36.949153"
     inkscape:window-x="0"
     inkscape:window-y="26"
     inkscape:window-maximized="1"
     inkscape:current-layer="svg12" />
  <g
     transform="matrix(0.83012,0,0,0.83012,-136.75593,-246.68305)"
     id="g10"
     style="fill:#44a7e8;fill-opacity:1">
    <g
       id="g8"
       style="fill:#44a7e8;fill-opacity:1">
      <path
         d="m 199.99456,371.11124 c -3.82814,0 -6.83368,-0.49949 -9.01661,-1.49599 -2.18293,-0.99773 -3.74798,-2.35806 -4.69021,-4.0859 -0.94471,-1.72414 -1.40226,-3.69988 -1.37513,-5.94201 0.0259,-2.23719 0.33546,-4.62238 0.92991,-7.1568 l 10.26963,-42.93958 12.5352,-1.93997 -11.24024,46.57903 c -0.21583,0.96937 -0.33669,1.85981 -0.36382,2.66761 -0.0284,0.80781 0.12086,1.52312 0.44398,2.14223 0.32313,0.62158 0.87564,1.11983 1.65755,1.49599 0.78068,0.37862 1.87337,0.62158 3.27563,0.72887 l -2.42589,9.94035"
         id="path4"
         inkscape:connector-curvature="0"
         style="fill:#44a7e8;fill-opacity:1;stroke-width:1" />
      <path
         d="m 247.71889,344.75712 c 0,3.9342 -0.64747,7.53295 -1.9412,10.79502 -1.29372,3.26329 -3.08693,6.0789 -5.37716,8.45052 -2.29146,2.37409 -5.04047,4.2191 -8.24827,5.53872 -3.20779,1.31963 -6.69925,1.98191 -10.47066,1.98191 -1.83391,0 -3.66658,-0.1628 -5.49925,-0.48715 l -3.63945,14.63796 h -11.96788 l 13.42316,-55.95453 c 2.1558,-0.64625 4.62239,-1.22589 7.39853,-1.73894 2.77738,-0.51182 5.78291,-0.76711 9.01784,-0.76711 3.01911,0 5.62136,0.45755 7.80305,1.37389 2.18416,0.91633 3.97614,2.17059 5.37839,3.76031 1.40103,1.59095 2.43823,3.45075 3.1116,5.57942 0.67338,2.12866 1.0113,4.40779 1.0113,6.83491 m -29.35485,16.57793 c 0.91634,0.21583 2.0485,0.32313 3.39649,0.32313 2.10153,0 4.01561,-0.38973 5.74098,-1.17287 1.72415,-0.78067 3.19423,-1.87214 4.4078,-3.27439 1.21109,-1.40102 2.15456,-3.08447 2.82917,-5.05404 0.67338,-1.9671 1.01007,-4.13646 1.01007,-6.50932 0,-2.31736 -0.51305,-4.2857 -1.53545,-5.90378 -1.02487,-1.61684 -2.80328,-2.42589 -5.33646,-2.42589 -1.72661,0 -3.34346,0.16157 -4.85301,0.48592 l -5.65959,23.53124"
         id="path6"
         inkscape:connector-curvature="0"
         style="fill:#44a7e8;fill-opacity:1;stroke-width:1" />
    </g>
  </g>
</svg>
