<?xml version="1.0" encoding="UTF-8" standalone="no"?>
<svg
   xmlns:dc="http://purl.org/dc/elements/1.1/"
   xmlns:cc="http://creativecommons.org/ns#"
   xmlns:rdf="http://www.w3.org/1999/02/22-rdf-syntax-ns#"
   xmlns:svg="http://www.w3.org/2000/svg"
   xmlns="http://www.w3.org/2000/svg"
   xmlns:sodipodi="http://sodipodi.sourceforge.net/DTD/sodipodi-0.dtd"
   xmlns:inkscape="http://www.inkscape.org/namespaces/inkscape"
   version="1.1"
   viewBox="0 0 80 80"
   id="svg20"
   sodipodi:docname="logo-tipeee.svg"
   inkscape:version="0.92.3 (unknown)">
  <metadata
     id="metadata26">
    <rdf:RDF>
      <cc:Work
         rdf:about="">
        <dc:format>image/svg+xml</dc:format>
        <dc:type
           rdf:resource="http://purl.org/dc/dcmitype/StillImage" />
      </cc:Work>
    </rdf:RDF>
  </metadata>
  <defs
     id="defs24" />
  <sodipodi:namedview
     pagecolor="#ffffff"
     bordercolor="#666666"
     borderopacity="1"
     objecttolerance="10"
     gridtolerance="10"
     guidetolerance="10"
     inkscape:pageopacity="0"
     inkscape:pageshadow="2"
     inkscape:window-width="1272"
     inkscape:window-height="773"
     id="namedview22"
     showgrid="false"
     inkscape:zoom="2.95"
     inkscape:cx="11.016949"
     inkscape:cy="37.966102"
     inkscape:window-x="0"
     inkscape:window-y="26"
     inkscape:window-maximized="0"
     inkscape:current-layer="svg20" />
  <g
     id="g18"
     fill="#fff"
     style="fill:#44a7e8;fill-opacity:1">
    <g
       transform="matrix(.634 0 0 1 2.69 -.678)"
       id="g12"
       stroke-width="1.58"
       opacity=".9"
       style="fill:#44a7e8;fill-opacity:1">
      <path
         d="M 25.827888,13.75435 9.5121017,16.560937 v 7.161254 H 5.1019589 v 8.252704 h 4.6367518 v 19.156074 c 0,2.494745 4.6193193,6.537567 9.2560713,6.537567 4.636751,0 15.339627,-2.02698 17.780023,-2.962509 0,-2.962509 -0.484592,-8.096782 -0.484592,-8.096782 l -10.47627,0.935528 V 32.175366 l 10.720308,0.154808 V 23.921548 H 25.813943 Z"
         id="path4"
         inkscape:connector-curvature="0"
         style="fill-rule:evenodd;stroke-width:1.58000016;fill:#44a7e8;fill-opacity:1" />
      <ellipse
         style="color:#000000;isolation:auto;mix-blend-mode:normal;solid-color:#000000;stroke-width:1.58000016;paint-order:normal;color-rendering:auto;image-rendering:auto;shape-rendering:auto;fill:#44a7e8;fill-opacity:1"
         cy="18.479616"
         cx="55.852959"
         id="circle6"
         rx="6.548286"
         ry="4.4514813" />
      <path
         d="M 44.170573,29.242587 61.84787,25.156838 v 23.093364 h 5.579877 v 7.94161 H 42.679531 l 0.215202,-8.035655 h 6.225483 V 37.079702 h -6.010281 z"
         id="path8"
         inkscape:connector-curvature="0"
         style="fill-rule:evenodd;stroke-width:1.58000016;fill:#44a7e8;fill-opacity:1" />
      <path
         d="m 87.233648,25.633763 -16.620789,0.134449 -0.192092,8.647263 4.754635,0.271799 -0.378736,26.115897 -4.386798,-0.540695 -0.189368,7.573609 h 23.160115 l -0.817416,-7.738043 h -4.904495 l 0.189368,-4.323632 c 0,0 10.231321,0.691588 13.514608,-0.675144 18.80057,-7.844442 8.95071,-27.179879 -2.670225,-27.470055 C 88.706359,27.39707 87.262257,27.222964 87.262257,27.222964 Z m 7.40453,7.765731 c 5.018461,0 9.086732,3.5731 9.086732,7.980744 0,4.407644 -4.06827,7.980745 -9.086732,7.980745 -5.018462,0 -9.086729,-3.573102 -9.086728,-7.980745 0,-4.407643 4.068266,-7.980744 9.086728,-7.980744 z"
         id="path10"
         inkscape:connector-curvature="0"
         style="fill-rule:evenodd;stroke-width:1.58000016;fill:#44a7e8;fill-opacity:1"
         sodipodi:nodetypes="cccccccccccccccsssss" />
    </g>
    <path
       style="color:#000000;opacity:0.9;isolation:auto;mix-blend-mode:normal;solid-color:#000000;stroke:none;stroke-width:3.01999998;paint-order:normal;color-rendering:auto;image-rendering:auto;shape-rendering:auto;fill:#44a7e8;fill-opacity:1"
       d="m 79.333064,67.576581 h 7.26 v 4.47 h -7.26 z"
       transform="matrix(1,0,-0.173,0.985,0,0)"
       id="path16"
       inkscape:connector-curvature="0"
       sodipodi:nodetypes="ccccc" />
  </g>
</svg>
