<svg xmlns="http://www.w3.org/2000/svg" version="1.1" viewBox="0 0 80 80">
 <g>
  <path d="m80.1 72.4c0 4.27-3.46 7.74-7.74 7.74h-64.6c-4.27 0-7.74-3.46-7.74-7.74v-64.6c0-4.27 3.46-7.74 7.74-7.74h64.5c4.27 0 7.74 3.46 7.74 7.74v64.6" stroke-width=".830" fill="#ffc438"/>
  <path d="m29.2 70.8 10.6 0.166 2.41-15.6c0.751-0.792 8.73-0.349 10.3-0.365 11.6-0.128 18.5-25.1 4.31-25.7-13.9-0.615-18.5-0.246-20.4-0.166-0.979 0.041-1.33 2.54-1.33 2.54z" fill-rule="evenodd" fill="#fff"/>
  <path d="m29.8 67.5 10.6 0.166 2.41-15.6c0.751-0.792 8.73-0.349 10.3-0.365 11.6-0.128 18.5-25.1 4.31-25.7-13.9-0.615-18.5-0.246-20.4-0.166-0.979 0.041-1.33 2.54-1.33 2.54z" fill-rule="evenodd" fill="#019bde"/>
 </g>
 <path d="m17.6 62.7 13 0.2 2.95-18.8c0.9-1 10.7-0.4 12.6-0.4 14.1-0.2 22.6-30.2 5.2-31-16.9-0.7-22.6-0.3-24.9-0.2-1.2 0.0494-1.63 3.06-1.63 3.06z" fill-opacity=".767" fill-rule="evenodd" fill="#00115d"/>
 <path d="m18 62.7 12.6 0.2-0.737 4.12h-13.3l1.37-4.32" fill-rule="evenodd" fill="#fff"/>
</svg>
