<?xml version="1.0" encoding="UTF-8" standalone="no"?>
<svg
   xmlns:dc="http://purl.org/dc/elements/1.1/"
   xmlns:cc="http://creativecommons.org/ns#"
   xmlns:rdf="http://www.w3.org/1999/02/22-rdf-syntax-ns#"
   xmlns:svg="http://www.w3.org/2000/svg"
   xmlns="http://www.w3.org/2000/svg"
   xmlns:sodipodi="http://sodipodi.sourceforge.net/DTD/sodipodi-0.dtd"
   xmlns:inkscape="http://www.inkscape.org/namespaces/inkscape"
   viewBox="0 0 80 80"
   version="1.1"
   id="svg12"
   sodipodi:docname="logo-iban.svg"
   inkscape:version="0.92.3 (unknown)">
  <metadata
     id="metadata18">
    <rdf:RDF>
      <cc:Work
         rdf:about="">
        <dc:format>image/svg+xml</dc:format>
        <dc:type
           rdf:resource="http://purl.org/dc/dcmitype/StillImage" />
        <dc:title />
      </cc:Work>
    </rdf:RDF>
  </metadata>
  <defs
     id="defs16" />
  <sodipodi:namedview
     pagecolor="#ffffff"
     bordercolor="#666666"
     borderopacity="1"
     objecttolerance="10"
     gridtolerance="10"
     guidetolerance="10"
     inkscape:pageopacity="0"
     inkscape:pageshadow="2"
     inkscape:window-width="1425"
     inkscape:window-height="813"
     id="namedview14"
     showgrid="false"
     inkscape:zoom="4.4865812"
     inkscape:cx="-2.9868908"
     inkscape:cy="63.651641"
     inkscape:window-x="412"
     inkscape:window-y="188"
     inkscape:window-maximized="0"
     inkscape:current-layer="svg12" />
  <path
     style="fill:#4595e0;stroke-width:0.83012003;fill-opacity:1"
     inkscape:connector-curvature="0"
     id="path2"
     d="m 80.057646,72.369368 c 0,4.270968 -3.46077,7.735059 -7.735058,7.735059 H 7.789059 c -4.2701372,0 -7.73505812,-3.464921 -7.73505812,-7.735059 V 7.8358396 c 0,-4.2709674 3.46492092,-7.73505816 7.73505812,-7.73505816 h 64.533529 c 4.274288,0 7.735058,3.46409076 7.735058,7.73505816 V 72.369368" />
  <path
     style="color:#000000;clip-rule:nonzero;display:inline;overflow:visible;visibility:visible;opacity:1;isolation:auto;mix-blend-mode:normal;color-interpolation:sRGB;color-interpolation-filters:linearRGB;solid-color:#000000;solid-opacity:1;vector-effect:none;fill:#ffffff;fill-opacity:1;fill-rule:nonzero;stroke:none;stroke-width:0.99999994px;stroke-linecap:butt;stroke-linejoin:miter;stroke-miterlimit:4;stroke-dasharray:none;stroke-dashoffset:0;stroke-opacity:1;paint-order:normal;color-rendering:auto;image-rendering:auto;shape-rendering:auto;text-rendering:auto;enable-background:accumulate"
     d="M 12.954128,16.824044 37.001359,38.3592 61.04673,16.824044 Z m -4.1822893,3.746094 v 29.519531 l 17.0507273,-14.25 z m 56.4571803,0 -17.119502,15.330078 17.119502,14.201172 z m -35.2,19.035156 -16.900165,14.126953 h 47.722703 l -16.950351,-14.0625 -6.899847,6.179688 z"
     id="rect977"
     inkscape:connector-curvature="0" />
  <g
     aria-label="$"
     transform="matrix(0.69382171,0,0,0.69655267,15.59055,45.154659)"
     style="font-style:normal;font-variant:normal;font-weight:normal;font-stretch:normal;font-size:0.66666669px;line-height:318.00000668%;font-family:Neuropolitical;-inkscape-font-specification:Neuropolitical;text-align:center;letter-spacing:0px;word-spacing:0px;writing-mode:lr-tb;text-anchor:middle;opacity:1;fill:#2966a5;fill-opacity:1;stroke:none;stroke-width:1.43846428px;stroke-linecap:butt;stroke-linejoin:miter;stroke-opacity:1"
     id="flowRoot816">
    <path
       d="M 82.84668,-5.0648067 71.65379,-3.299314 c -0.583333,-1.4791667 -1.114583,-2.5 -1.59375,-3.0625 -0.26192,-0.622462 -0.35634,-0.7617785 -1.282542,-1.8537846 V 0.81565141 C 75.110831,2.5031514 77.87793,4.4664433 80.00293,6.3414433 c 2.8125,2.5208331 4.21875,5.7187497 4.21875,9.5937497 0,2.270833 -0.510417,4.354167 -1.53125,6.25 -1,1.895833 -2.291667,3.479167 -3.875,4.75 -1.5625,1.270833 -3.229167,2.197917 -5,2.78125 -1.770833,0.5625 -2.475432,0.713791 -5.037932,0.817958 v 3.153253 h -6.755602 v -3.153253 c -3.0625,-0.270833 -4.821049,-0.578375 -6.737716,-1.286708 -1.895833,-0.729167 -3.541667,-1.729167 -4.9375,-3 -1.375,-1.270833 -2.4375,-2.635417 -3.1875,-4.09375 -0.75,-1.479167 -1.3125,-3.260417 -1.6875,-5.34375 l 12.625,-1.46875 c 0.375,2.0625 0.875,3.552083 1.5,4.46875 0.645833,0.916667 0.966883,1.547125 2.425216,2.255458 V 11.034401 C 57.813563,9.8677351 55.555013,9.03936 53.78418,8.1851933 c -1.75,-0.8541667 -3.270833,-2.21875 -4.5625,-4.09375 -1.291667,-1.8958333 -1.9375,-4.19791667 -1.9375,-6.90625 0,-3.7083333 1.291667,-6.8020834 3.875,-9.2812503 2.604167,-2.5 5.737716,-4.067459 10.862716,-4.338292 v -3.09375 h 6.755602 v 3.09375 c 4.666667,0.291667 6.767099,1.577875 9.225432,3.494542 2.479167,1.916667 4.09375,4.5416668 4.84375,7.8750003 z M 62.021896,-8.3718486 c -1.333333,0.4375 -1.529383,1.1612086 -2.050216,1.8070419 -0.520833,0.6458333 -0.78125,1.40625 -0.78125,2.28125 0,0.9166667 0.260417,1.71875 0.78125,2.40625 0.541667,0.6666667 0.737716,1.04712478 2.050216,1.50545811 z m 6.755602,30.7499996 c 1.770833,-0.395833 1.600432,-0.859625 2.412932,-1.755458 0.833333,-0.916667 1.25,-1.9375 1.25,-3.0625 0,-0.979167 -0.149214,-2.351349 -0.857547,-3.163849 -0.6875,-0.833333 -2.805385,-4.152096 -2.805385,-2.018193 z"
       style="font-style:normal;font-variant:normal;font-weight:normal;font-stretch:normal;font-size:64px;font-family:'Arial Black';-inkscape-font-specification:'Arial Black, ';fill:#2966a5;fill-opacity:1;stroke-width:1.43846428px"
       id="path824"
       inkscape:connector-curvature="0"
       sodipodi:nodetypes="ccccccscccccccccccccccccsccccccccsscccccscsc" />
  </g>
</svg>
