<svg width="12" height="12" version="1.1" viewBox="0 0 100 100" xmlns="http://www.w3.org/2000/svg">
 <g transform="translate(0 92) scale(.065 -.065)" fill="#fff">
  <path d="m1216 576v128q0 26-19 45t-45 19h-256v256q0 26-19 45t-45 19h-128q-26 0-45-19t-19-45v-256h-256q-26 0-45-19t-19-45v-128q0-26 19-45t45-19h256v-256q0-26 19-45t45-19h128q26 0 45 19t19 45v256h256q26 0 45 19t19 45zm320 64q0-209-103-386t-280-280-386-103-386 103-280 280-103 386 103 386 280 280 386 103 386-103 280-280 103-386z" fill="#fff"/>
 </g>
</svg>
