<svg xmlns:rdf="http://www.w3.org/1999/02/22-rdf-syntax-ns#" xmlns="http://www.w3.org/2000/svg" height="20" width="20" version="1.1" xmlns:cc="http://creativecommons.org/ns#" xmlns:dc="http://purl.org/dc/elements/1.1/" viewBox="0 0 100 100">
 <g transform="translate(10 80) scale(.05 -.05)">
  <path d="m888-241c-114 0.418-229 24.6-334 69.3a16.2 16.2 0 0 1 -0.0293 0.0137c-170 72.6-320 199-413 359a16.2 16.2 0 0 1 -0.0918 0.154c-39 65-69.7 135-90.6 207a16.2 16.2 0 0 1 -0.0137 0.0508c-49.4 169-47.4 354 9.3 522a16.2 16.2 0 0 1 0.0273 0.084c66.2 199 203 375 385 480a16.2 16.2 0 0 1 0.131 0.074c125 73.9 269 118 414 124a16.2 16.2 0 0 1 0.0391 0c85.3 3.46 171-5.1 254-26.6a16.2 16.2 0 0 1 0.051 -0.012c222-57.1 423-202 538-401a16.2 16.2 0 0 1 0.086 -0.146c37.5-63 67.7-130 88.5-200a16.2 16.2 0 0 1 0.018 -0.0527c51.3-171 50-358-7.07-527a16.2 16.2 0 0 1 -0.027 -0.082c-60-197-200-374-380-479a16.2 16.2 0 0 1 -0.168 -0.0977c-68.7-40.9-143-72.8-220-93.7a16.2 16.2 0 0 1 -0.035 -0.01c-77.9-21.2-159-31.8-239-31.3a16.2 16.2 0 0 1 -0.043 0zm7.39 129a16.2 16.2 0 0 1 0.043 0c111 0.382 222 25.3 322 73.5 153 73.1 283 198 355 353 0.01 0.0198 0.02 0.0387 0.029 0.0586 111 222 97 499-32.4 710-131 225-387 369-647 366-258 0.894-510-143-641-365a16.2 16.2 0 0 1 -0.0664 -0.113c-20-39-38-75-54-112a16.2 16.2 0 0 1 -0.0449 -0.109c-85-211-67-460 49-656 129-229 387-374 649-374zm-290 430c-81.6-1.05-165 25.5-225 80.6a16.2 16.2 0 0 1 -0.424 0.377c-62.7 53.8-98.4 136-103 219a16.2 16.2 0 0 1 -0.004 0.082c-5.27 84.2 20.8 172 77.1 234a16.2 16.2 0 0 1 0.385 0.443c50.1 59.8 126 96.4 203 106a16.2 16.2 0 0 1 0.0293 0.004c66.6 8.37 136-1.08 196-29.2 31-17.7 62-31.8 79.5-55.9 3.38-5.26 5.93-9.89 7.06-13.1-5.48-20.6-25.4-39-40.4-66.1-9.36-14.7-17.9-26.7-27.8-29.7-3.97-0.927-10.2 1.53-14.2 6.23a16.2 16.2 0 0 1 -1.51 1.57c-55.7 50.7-138 73.3-211 48.2-43-14.1-78.6-45.8-98.7-85.9-34.5-67.3-30.2-153 15.5-215a16.2 16.2 0 0 1 0.123 -0.164c51.8-68.1 148-88.8 226-58.3 33.7 9.47 58.5 31.8 81.4 49.3 8.09 6 15.9 11.4 23.6 15.5 6.23-0.808 12.9-5.91 16.9-13.1a16.2 16.2 0 0 1 0.191 -0.328c6.78-11.4 12.5-25.4 21.1-39.6 9.97-22.1 22.9-35.5 23.1-48.2-0.007-3.68-1.48-6.8-3.92-8.79a16.2 16.2 0 0 1 -1.51 -1.4c-62-63-153-97-243-96a16.2 16.2 0 0 1 -0.426 0zm630 0c-81.6-1.05-165 25.5-225 80.6a16.2 16.2 0 0 1 -0.428 0.381c-72 52-107 132-113 212a16.2 16.2 0 0 1 -0.006 0.0742c-6.95 85.5 18.3 175 75 239a16.2 16.2 0 0 1 0.178 0.203c26 30.3 57.4 55.9 92.8 73.8a16.2 16.2 0 0 1 0.059 0.0293c94 48.1 211 49.4 307 6.33 31.4-18 62.7-32 80.7-56.2 3.6-5.47 6.33-10.3 7.53-13.8-5.49-20.6-25.4-38.9-40.4-66.1-9.35-14.7-17.9-26.7-27.8-29.7-3.97-0.927-10.2 1.53-14.2 6.23a16.2 16.2 0 0 1 -1.51 1.57c-55.7 50.7-138 73.3-211 48.2-43-14.1-78.6-45.8-98.7-85.9-34.7-67.6-30.2-154 16.2-216a16.2 16.2 0 0 1 0.131 -0.172c52-67.4 148-87.7 225-57.4 33.7 9.45 58.4 31.7 81.4 49.3 9.2 6.52 17.1 12.5 24.1 15.6 6.21-0.636 13-5.74 17.2-13.1a16.2 16.2 0 0 1 0.162 -0.273c6.59-10.9 12.3-24 20.1-37.4 10.1-22.3 23.2-36 23.7-49.2 0.072-4.21-1.66-8.03-4.49-10.3a16.2 16.2 0 0 1 -1.49 -1.37c-61.7-64.6-153-98.3-243-97.1a16.2 16.2 0 0 1 -0.426 0z"/>
 </g>
</svg>
