<svg xmlns:rdf="http://www.w3.org/1999/02/22-rdf-syntax-ns#" xmlns="http://www.w3.org/2000/svg" height="20" width="20" version="1.1" xmlns:cc="http://creativecommons.org/ns#" xmlns:dc="http://purl.org/dc/elements/1.1/" viewBox="0 0 100 100">
 <g transform="matrix(.0592 0 0 -.0613 .789 98.9)">
  <path d="m1.66e3 416v-320c0-26.7-9.33-49.3-28-68-10-18.7-40-28-60-28h-1.47e3c-28.7 0-51.3 9.33-70 28s-28 41.3-28 68v320c0 26.7 9.33 49.3 28 68s41.3 28 68 28h347l196-223c55.1-37.3 120-56 194-56 74.1 0 139 18.7 194 56l190 223h350c26.7 0 49.3-9.33 68-28s28-41.3 28-68zm-322 613c11.3-27.3 6.67-50.7-14-70l-446-461c-12-12.7-27-19-45-19s-33 6.33-45 19l-456 460c-20.7 19.3-25.3 42.7-14 70 11.3 26 31 39 59 39l296-81-4 531c-0.134 17.3 6.33 32.3 19 45s27.7 19 45 19h163c17.3 0 32.3-6.33 45-19s19-27.7 19-45l4-531 310 81c27.1 6.93 47.7-13 59-39z"/>
 </g>
</svg>
