<?xml version="1.0" encoding="UTF-8" standalone="no"?>
<svg
   xmlns:dc="http://purl.org/dc/elements/1.1/"
   xmlns:cc="http://creativecommons.org/ns#"
   xmlns:rdf="http://www.w3.org/1999/02/22-rdf-syntax-ns#"
   xmlns:svg="http://www.w3.org/2000/svg"
   xmlns="http://www.w3.org/2000/svg"
   xmlns:sodipodi="http://sodipodi.sourceforge.net/DTD/sodipodi-0.dtd"
   xmlns:inkscape="http://www.inkscape.org/namespaces/inkscape"
   height="16"
   width="16"
   version="1.1"
   viewBox="0 0 80 80"
   id="svg6"
   sodipodi:docname="edit_w.svg"
   inkscape:version="0.92.3 (unknown)">
  <metadata
     id="metadata12">
    <rdf:RDF>
      <cc:Work
         rdf:about="">
        <dc:format>image/svg+xml</dc:format>
        <dc:type
           rdf:resource="http://purl.org/dc/dcmitype/StillImage" />
        <dc:title></dc:title>
      </cc:Work>
    </rdf:RDF>
  </metadata>
  <defs
     id="defs10" />
  <sodipodi:namedview
     pagecolor="#ffffff"
     bordercolor="#666666"
     borderopacity="1"
     objecttolerance="10"
     gridtolerance="10"
     guidetolerance="10"
     inkscape:pageopacity="0"
     inkscape:pageshadow="2"
     inkscape:window-width="1461"
     inkscape:window-height="792"
     id="namedview8"
     showgrid="false"
     inkscape:zoom="20.638274"
     inkscape:cx="2.2191779"
     inkscape:cy="10.487796"
     inkscape:window-x="0"
     inkscape:window-y="26"
     inkscape:window-maximized="0"
     inkscape:current-layer="svg6" />
  <g
     transform="matrix(0.04173091,0,0,-0.0451359,3.2403301,79.407219)"
     id="g4"
     style="fill:#ffffff">
    <path
       d="M 856,437 998,547 858,709 733,602 672,494 806,559 731,432 874,510 Z m 554,41 V 288 C 1410,209 1380,141 1320,84 1270,28.2 1200,0 1120,0 H 286 C 207,0 139,28.2 82,84.5 26.2,141 -2,208.5 -2,288.5 v 832 c 0,79.3 28.2,147 84.5,204 56.3,56.3 124,84.5 204,84.5 h 832 c 42,0 81,-8.33 117,-25 10,-4.67 16,-12.3 18,-23 2,-11.3 -68,-107 -75,-114 l -42.6,-42.1 c -8.2,-8.1 6.64,-7.52 -3.76,-4.09 -13.3,3.43 -50.3,2.37 -63.1,2.37 h -723 c -38.3,0 -71,-13.5 -98.3,-40.4 -27.2,-26.9 -40.9,-59.2 -40.9,-97 v -714 c 0,-37.8 13.7,-70.2 40.9,-97 27.2,-26.9 60,-40.4 98.3,-40.4 h 723 c 38.3,0 71,13.5 98.2,40.4 27.2,26.9 40.9,59.2 40.9,97 v 108 c 0,7.44 2.61,13.7 7.83,18.9 l 55.6,55 c 0,4 90,-25 110,-30 13.3,-5.33 20,-15 20,-29 z M 1320,1230 1560,948 874,371 507,309 643,648 Z m 414,-137 -90.9,-79 -242,285 90.9,79 c 18.5,16.1 40.2,26.1 64.2,21.5 24,-4.58 47,-10.1 60,-30.2 l 128,-150 c 15.7,-18.5 25.8,-40.4 20.5,-64.6 -5.3,-24.2 -10.2,-47.2 -30.6,-61 z"
       id="path2"
       style="fill:#ffffff"
       inkscape:connector-curvature="0" />
  </g>
</svg>
