<svg width="20" height="20" version="1.1" viewBox="0 0 100 100" xmlns="http://www.w3.org/2000/svg">
 <g transform="matrix(.0378 0 0 -.0409 19.1 96.5)" fill="#3daee9" stroke-width="1.39">
  <path d="m856 437 142 110-140 162-125-107-61-108 134 65-75-127 143 78zm554 41v-190c0-79-30-147-90-204-50-55.8-120-84-200-84h-834c-79 0-147 28.2-204 84.5-55.8 56.5-84 124-84 204v832c0 79.3 28.2 147 84.5 204 56.3 56.3 124 84.5 204 84.5h832c42 0 81-8.33 117-25 10-4.67 16-12.3 18-23 2-11.3-68-107-75-114l-42.6-42.1c-8.2-8.1 6.64-7.52-3.76-4.09-13.3 3.43-50.3 2.37-63.1 2.37h-723c-38.3 0-71-13.5-98.3-40.4-27.2-26.9-40.9-59.2-40.9-97v-714c0-37.8 13.7-70.2 40.9-97 27.2-26.9 60-40.4 98.3-40.4h723c38.3 0 71 13.5 98.2 40.4s40.9 59.2 40.9 97v108c0 7.44 2.61 13.7 7.83 18.9l55.6 55c0 4 90-25 110-30 13.3-5.33 20-15 20-29zm-90 752 240-282-686-577-367-62 136 339zm414-137-90.9-79-242 285 90.9 79c18.5 16.1 40.2 26.1 64.2 21.5 24-4.58 47-10.1 60-30.2l128-150c15.7-18.5 25.8-40.4 20.5-64.6s-10.2-47.2-30.6-61z" fill="#3daee9" stroke-width="1.39"/>
 </g>
</svg>
