<?xml version="1.0" encoding="UTF-8" standalone="no"?>
<svg
   xmlns:dc="http://purl.org/dc/elements/1.1/"
   xmlns:cc="http://creativecommons.org/ns#"
   xmlns:rdf="http://www.w3.org/1999/02/22-rdf-syntax-ns#"
   xmlns:svg="http://www.w3.org/2000/svg"
   xmlns="http://www.w3.org/2000/svg"
   id="svg6"
   viewBox="0 0 100 142.85716"
   height="20"
   width="14"
   version="1.1">
  <metadata
     id="metadata12">
    <rdf:RDF>
      <cc:Work
         rdf:about="">
        <dc:format>image/svg+xml</dc:format>
        <dc:type
           rdf:resource="http://purl.org/dc/dcmitype/StillImage" />
        <dc:title></dc:title>
      </cc:Work>
    </rdf:RDF>
  </metadata>
  <defs
     id="defs10" />
  <g
     style="fill:#8092af;fill-opacity:0.94117647"
     id="g4"
     transform="matrix(0.04006885,0,0,-0.04006885,8.7288135,84.297826)">
    <path
       style="fill:#8092af;fill-opacity:0.94117647"
       id="path2"
       d="m 1280,608 v 480 q 0,26 -19,45 -19,19 -45,19 H 736 q -42,0 -59,-39 -17,-41 14,-70 L 835,899 301,365 q -19,-19 -19,-45 0,-26 19,-45 L 403,173 q 19,-19 45,-19 26,0 45,19 l 534,534 144,-144 q 18,-19 45,-19 12,0 25,5 39,17 39,59 z m 256,512 V 160 Q 1536,41 1451.5,-43.5 1367,-128 1248,-128 H 288 Q 169,-128 84.5,-43.5 0,41 0,160 v 960 Q 0,1239 84.5,1323.5 169,1408 288,1408 h 960 q 119,0 203.5,-84.5 Q 1536,1239 1536,1120 Z" />
  </g>
</svg>
