<svg xmlns:rdf="http://www.w3.org/1999/02/22-rdf-syntax-ns#" xmlns="http://www.w3.org/2000/svg" height="20" width="20" version="1.1" xmlns:cc="http://creativecommons.org/ns#" xmlns:dc="http://purl.org/dc/elements/1.1/" viewBox="0 0 100 100">
 <g fill="#258fd6" transform="matrix(.05 0 0 -.05 -3.28 94.2)">
  <path fill="#258fd6" d="m1.17e3 1.24e3 -530-536 530-531q19-19 19-45t-19-45l-170-166q-19-19-45-19t-45 19l-737 742q-19 19-19 45t19 45l742 742q19 19 45 19t45-19l166-166q19-19 19-45t-19-45zm787-14.6-531-531 531-531q19-19 19-45t-19-45l-166-166q-19-19-45-19t-45 19l-742 742q-19 19-19 45t19 45l742 742q19 19 45 19t45-19l166-166q19-19 19-45t-19-45z"/>
 </g>
</svg>
