<svg xmlns:rdf="http://www.w3.org/1999/02/22-rdf-syntax-ns#" xmlns="http://www.w3.org/2000/svg" height="20" width="20" version="1.1" xmlns:cc="http://creativecommons.org/ns#" xmlns:dc="http://purl.org/dc/elements/1.1/" viewBox="0 0 100 100">
 <path style="color-rendering:auto;color:#000000;isolation:auto;mix-blend-mode:normal;shape-rendering:auto;solid-color:#000000;image-rendering:auto" d="m12.2-0.128h76.1c6.73 0 12.2 5.42 12.2 12.2v76.5c0 6.73-5.42 12.2-12.2 12.2h-76.1c-6.28 0-11.7-5.3-11.7-12v-76.4c1.25e-7 -6.78 5.42-12.2 12.2-12.2z"/>
 <g transform="matrix(.05 0 0 -.0422 5.6 77)" fill="#fff">
  <path fill="#fff" d="m595 22c0 66.7-55 100-165 100-105 0-158-34.7-158-104 0-67.3 57.3-101 172-101 101 0 151 35 151 105zm-59 755c0 40.7-10 74.7-30 102s-49.7 41-89 41c-82.7 0-124-48.3-124-145 0-90 41.3-135 124-135 79.3 0 119 45.7 119 137zm269 324v-202c-24-7.33-50.3-14.3-79-21 10.7-28.7 16-56.7 16-84 0-84.7-24.3-157-73-217-48.7-59.3-114-96.7-197-112-26.7-5.33-46.7-14.3-60-27-12.7-12.7-19-32-19-58 0-20.7 7.5-37.8 22.5-51.5s34.3-24.3 58-32c23.3-8 49.3-15.3 78-22 28.7-7.33 57.3-16 86-26s54.7-22.7 78-38c24-14.7 43.3-36 58-64 15.3-27.3 23-60 23-98 0-203-121-304-363-304-46 0-89.3 4.17-130 12.5s-79.3 22-116 41-65.8 46.3-87.5 82c-22 36-33 78.7-33 128 0 110 60.7 185 182 225v4c-44.7 27.3-67 69.3-67 126 0 72.7 21 118 63 137v4c-48 16-88 52.3-120 109-31.3 56-47 111-47 165 0 92.7 31.7 170 95 232 63.3 61.7 142 92.5 235 92.5 64 0 123-15.7 178-47 65.3 0 138 15.7 218 47zm345-882-140 2h-132c1.33 15 0.239 81.8 0.905 104 1 22 26 0 26 30v609c0 31.3-13.5 2.32-14.2 23.7-0.667 21.3-2.86 93-4.2 104l259 2.84c-1.33-11-3.53-83.6-4.2-104-10-17-30 11-30-19v-613c0-29.7 24.1-7.45 24.8-29.8 0.667-22.3 3.04-91.7 4.38-107zm570 224v-196c-47.3-26-105-39-174-39-41.3 0-77 6.67-107 20s-53.3 30-70 50-29.8 46-39.5 78c-9.67 32-15.8 62.7-18.5 92-2.67 29.3-4 63.7-4 103v351h2v4c-4.67 0-11 0.333-19 1s-14 1-18 1c-14 0-33.7-2-59-6v190h96v76c0 36-2 65.7-6 89h227c-4-27.3-6-82.3-6-165h171v-190c-10 0-24.5 0.667-43.5 2s-33.2 2-42.5 2h-85v-365c0-87.3 29-131 87-131 40.7 0 77 11 109 33zm-576 947c0-38.7-13-72.7-39-102-26-29-58-43.5-96-43.5-38.7 0-71.3 14.5-98 43.5s-40 63-40 102c0 39.3 13.2 73.7 39.5 103s59.2 44 98.5 44c38.7 0 70.8-14.8 96.5-44.5 33.3-26.7 38.5-55.1 38.5-95.1z"/>
 </g>
</svg>
