<svg xmlns="http://www.w3.org/2000/svg" version="1.1" width="10" height="10" viewBox="0 0 100 100">
<g transform="translate(0,92) scale(0.065,-0.065)">
<path fill="#FFFFFF" d="M1285 640q0 27 -18 45l-91 91l-362 362q-18 18 -45 18t-45 -18l-91 -91q-18 -18 -18 -45t18 -45l189 -189h-502q-26 0 -45 -19t-19 -45v-128q0 -26 19 -45t45 -19h502l-189 -189q-19 -19 -19 -45t19 -45l91 -91q18 -18 45 -18t45 18l362 362l91 91q18 18 18 45zM1536 640q0 -209 -103 -385.5t-279.5 -279.5t-385.5 -103t-385.5 103t-279.5 279.5t-103 385.5t103 385.5t279.5 279.5t385.5 103t385.5 -103t279.5 -279.5t103 -385.5z" />    
</g></svg>
