<?xml version="1.0" encoding="UTF-8" standalone="no"?>
<svg
   xmlns:dc="http://purl.org/dc/elements/1.1/"
   xmlns:cc="http://creativecommons.org/ns#"
   xmlns:rdf="http://www.w3.org/1999/02/22-rdf-syntax-ns#"
   xmlns:svg="http://www.w3.org/2000/svg"
   xmlns="http://www.w3.org/2000/svg"
   xmlns:sodipodi="http://sodipodi.sourceforge.net/DTD/sodipodi-0.dtd"
   xmlns:inkscape="http://www.inkscape.org/namespaces/inkscape"
   height="16"
   width="16"
   version="1.1"
   viewBox="0 0 80 80"
   id="svg6"
   sodipodi:docname="history_b.svg"
   inkscape:version="0.92.3 (unknown)">
  <metadata
     id="metadata12">
    <rdf:RDF>
      <cc:Work
         rdf:about="">
        <dc:format>image/svg+xml</dc:format>
        <dc:type
           rdf:resource="http://purl.org/dc/dcmitype/StillImage" />
        <dc:title></dc:title>
      </cc:Work>
    </rdf:RDF>
  </metadata>
  <defs
     id="defs10" />
  <sodipodi:namedview
     pagecolor="#ffffff"
     bordercolor="#666666"
     borderopacity="1"
     objecttolerance="10"
     gridtolerance="10"
     guidetolerance="10"
     inkscape:pageopacity="0"
     inkscape:pageshadow="2"
     inkscape:window-width="687"
     inkscape:window-height="480"
     id="namedview8"
     showgrid="false"
     inkscape:zoom="8.9224953"
     inkscape:cx="7.6650424"
     inkscape:cy="8.7370763"
     inkscape:window-x="0"
     inkscape:window-y="26"
     inkscape:window-maximized="0"
     inkscape:current-layer="svg6" />
  <g
     transform="matrix(0.04622245,0,0,-0.04622245,4.6115255,73.187871)"
     id="g4">
    <path
       d="M 502,860 739,446 c 5.38,-9.37 10.3,-18.4 20.6,-16.5 10.3,1.9 16.4,-1.8 26.3,3.75 l 299,168 c 9.87,5.54 18.8,11 16.7,20.4 -2.09,9.4 1.56,16.7 -3.79,26 l -34,59.2 c -5.42,9.45 -10.3,18.4 -20.6,16.5 -10.3,-1.9 -16.4,1.8 -26.3,-3.75 l -202,-117 -187,325 c -5.38,9.37 -10.3,18.4 -20.6,16.5 -10.3,-1.9 -16.5,1.74 -26.3,-3.75 l -59.8,-33.6 c -9.87,-5.54 -18.8,-11 -16.7,-20.4 2.09,-9.4 -1.59,-16.6 3.79,-26 z M 224,640 c 0,98.7 24.3,190 73,273 48.7,83.3 115,149 198,198 83.3,48.7 174,73 273,73 98.7,0 190,-24.3 273,-73 83.3,-48.7 149,-115 198,-198 48.7,-83.3 73,-174 73,-273 0,-98.7 -24.3,-190 -73,-273 C 1189,284 1119,218 1039,169 957,120 866,96 767,96 668,96 577,120 494,169 411,218 345,284 296,367 247,450 223,541 223,640 Z M 0,640 C 0,501 34.3,372 103,254 172,137 265,44 382,-25 c 118,-68.7 247,-103 386,-103 139,0 268,34.3 386,103 118,68.7 211,162 280,280 68.7,118 103,246 103,386 0,139 -34.3,268 -103,386 -68.7,118 -162,211 -280,280 -118,68.7 -246,103 -386,103 -139,0 -268,-34.3 -386,-103 C 265,1237 172,1137 103,1027 34.3,905 0,776 0,637 Z"
       id="path2"
       inkscape:connector-curvature="0"
       style="fill:#3daee9;fill-opacity:1" />
  </g>
</svg>
