<svg width="20" height="20" version="1.1" viewBox="0 0 100 100" xmlns="http://www.w3.org/2000/svg">
 <g transform="matrix(.0495 0 0 -.0495 13.4 93.2)" fill="#806e5b">
  <path d="m502 860 237-414c5.38-9.37 10.3-18.4 20.6-16.5s16.4-1.8 26.3 3.75l299 168c9.87 5.54 18.8 11 16.7 20.4-2.09 9.4 1.56 16.7-3.79 26l-34 59.2c-5.42 9.45-10.3 18.4-20.6 16.5s-16.4 1.8-26.3-3.75l-202-117-187 325c-5.38 9.37-10.3 18.4-20.6 16.5s-16.5 1.74-26.3-3.75l-59.8-33.6c-9.87-5.54-18.8-11-16.7-20.4 2.09-9.4-1.59-16.6 3.79-26zm-278-220c0 98.7 24.3 190 73 273 48.7 83.3 115 149 198 198 83.3 48.7 174 73 273 73 98.7 0 190-24.3 273-73 83.3-48.7 149-115 198-198 48.7-83.3 73-174 73-273 0-98.7-24.3-190-73-273-50-83-120-149-200-198-82-49-173-73-272-73s-190 24-273 73-149 115-198 198-73 174-73 273zm-224 0c0-139 34.3-268 103-386 69-117 162-210 279-279 118-68.7 247-103 386-103s268 34.3 386 103 211 162 280 280c68.7 118 103 246 103 386 0 139-34.3 268-103 386s-162 211-280 280c-118 68.7-246 103-386 103-139 0-268-34.3-386-103-117-70-210-170-279-280-68.7-122-103-251-103-390z" fill="#806e5b"/>
 </g>
</svg>
