<svg xmlns:rdf="http://www.w3.org/1999/02/22-rdf-syntax-ns#" xmlns="http://www.w3.org/2000/svg" height="26" width="26" version="1.1" xmlns:cc="http://creativecommons.org/ns#" xmlns:dc="http://purl.org/dc/elements/1.1/" viewBox="0 0 100 100">
 <path d="m12.9 10.2-8.31 7.61c0 0.0096-0.00299 0.0237-0.00781 0.043-0.00481 0.0193-0.00791 0.0333-0.00781 0.043l0.0625 6.25c0.00253 0.251 0.0923 0.467 0.275 0.65s0.4 0.275 0.65 0.275h5.55v-5.17c0.413-0.774 0.969-1.11 1.82-1.18 0.871 0.0032 1.29 0.414 1.88 1.18v5.17h5.55c0.251 0 0.467-0.0923 0.65-0.275s0.278-0.4 0.275-0.65l-0.0625-6.25c-0.00039-0.0386-0.006-0.0667-0.0156-0.0859zm4.23 8.41h2.39v2.96h-2.39z" transform="scale(3.85)" fill="#362318"/>
 <path fill="#362318" d="m6.38 62.7 2.09 6.19c0.297 0.366 0.686 0.59 1.17 0.672h0.167c0.482 0 0.871-0.142 1.17-0.427l38.8-35.1 38.5 35.1c0.445 0.326 0.89 0.468 1.33 0.427 0.482-0.0814 0.871-0.305 1.17-0.672l2.28-5.28c0.297-0.407 0.426-0.885 0.389-1.43-0.0371-0.549-0.612-1.31-0.612-1.31l-38.9-35.9c-1.19-1.06-2.59-1.59-4.23-1.59-1.63 0-3.04 0.529-4.23 1.59l-13.6 12.5v-11.9c0-0.57-0.167-1.04-0.5-1.4-0.334-0.366-0.76-0.549-1.28-0.549h-10.7c-0.519 0-0.945 0.183-1.28 0.549-0.334 0.366-0.5 0.834-0.5 1.4v24.9l-10.8 9.44c-0.371 0.326-0.575 0.763-0.612 1.31-0.0371 0.549 0.0927 1.03 0.389 1.43z"/>
</svg>
