<svg xmlns:rdf="http://www.w3.org/1999/02/22-rdf-syntax-ns#" xmlns="http://www.w3.org/2000/svg" height="16" width="16" version="1.1" xmlns:cc="http://creativecommons.org/ns#" xmlns:dc="http://purl.org/dc/elements/1.1/" viewBox="0 0 100 100">
 <g transform="matrix(.0607 0 0 -.0607 17.8 94.6)">
  <path d="m512 384q0 36-20 69-1 1-15.5 22.5t-25.5 38-25 44-21 50.5q-4 16-21 16t-21-16q-7-23-21-50.5-14-28-25-44-11-17-25-38-15-22-16-23-20-33-20-69 0-53 38-90 37-38 90-38t90.5 37.5q38 37 38 90zm512 128q0-212-146-362-150-150-362-150t-362 150-150 362q0 145 81 275 6 9 62.5 90.5t101 151 99.5 178 83 202q9 30 34 47t51 17 51.5-17 33.5-47q28-93 83-202 55-108 99.5-178 44-71 100-152 57-82 63-91 81-127 81-275z"/>
 </g>
</svg>
