<svg xmlns:rdf="http://www.w3.org/1999/02/22-rdf-syntax-ns#" xmlns="http://www.w3.org/2000/svg" height="32" width="32" version="1.1" xmlns:cc="http://creativecommons.org/ns#" xmlns:dc="http://purl.org/dc/elements/1.1/" viewBox="0 0 100 100">
 <path style="color-rendering:auto;color:#000000;isolation:auto;mix-blend-mode:normal;shape-rendering:auto;solid-color:#000000;image-rendering:auto" d="m11.1 5.7h39.4v19.9h-39.4zm-4.05 3.83h86.6v19.9h-86.6z" fill="#666"/>
 <rect style="color-rendering:auto;color:#000000;isolation:auto;mix-blend-mode:normal;shape-rendering:auto;solid-color:#000000;image-rendering:auto" height="75.8" width="92.4" y="14.9" x="3.87" fill="#ececec"/>
 <g fill="#24221c" transform="matrix(.0377 0 0 -.0377 19.8 77.3)">
  <path fill="#24221c" d="m654 458q-1-3-12.5 0.5-12 4-32 12l-20 9q-44 20-87 49-7 5-41 31.5-34 26-38 28-67-103-134-181-81-95-105-110-4-2-19.5-4t-18.5 0q6 4 82 92 21 24 85.5 115t78.5 118q17 30 51 98.5t36 77.5q-8 1-110-33-8-2-27.5-7.5-20-7-35-11t-17-5q-2-2-2-10.5t-1-9.5q-5-10-31-15-23-7-47 0-18 4-28 21-4 6-5 23 6 2 24.5 5t29.5 6q58 16 105 32 100 35 102 35 10 2 43 19.5t44 21.5q9 3 21.5 8t14.5 5.5 6-0.5q2-12-1-33 0-2-12.5-27-11-27-25-56-14-28-17-33-25-50-77-131l64-28q12-6 74.5-32t67.5-28q4-1 10.5-25.5 7-24 5-30zm-205 486q3-15-4-28-12-23-50-38-30-12-60-12-26 3-49 26-14 15-18 41l1 3q3-3 19.5-5t26.5 0 58 16q36 12 55 14 17 0 21-17zm698-129 63-227-139 42zm-1.11e3 -800 694 232v1.03e3l-694-230v-1.04e3zm1.24e3 317 102-31-181 657-100 31-216-536 102-31 45 110 211-65zm-503 962 573-184v380zm311-1.32e3 158-13-54-160-40 66q-130-83-276-108-58-12-91-12h-84q-79 0-200 39-120 39-184 85-8 7-8 16 0 8 5 13.5t13 5.5q4 0 18-7.5t30.5-16.5 20.5-11q73-37 160-61.5 80-24 151-24 95 0 167 14.5t157 50.5q15 7 30.5 15.5t34 19 28.5 16.5zm448 1.08e3v-1.08e3l-774 246q-18-5-379-126-361-122-368-122-13 0-18 13 0 1-1 3v1.08e3q3 9 4 10 5 6 20 11 107 36 149 50v384l558-198q2 0 160 55t316 108q158 53.5 162 53.5 20 0 20-21v-418z"/>
 </g>
</svg>
