<?xml version="1.0" encoding="UTF-8" standalone="no"?>
<svg
   xmlns:dc="http://purl.org/dc/elements/1.1/"
   xmlns:cc="http://creativecommons.org/ns#"
   xmlns:rdf="http://www.w3.org/1999/02/22-rdf-syntax-ns#"
   xmlns:svg="http://www.w3.org/2000/svg"
   xmlns="http://www.w3.org/2000/svg"
   height="32"
   width="32"
   version="1.1"
   viewBox="0 0 100 100"
   id="svg10">
  <metadata
     id="metadata16">
    <rdf:RDF>
      <cc:Work
         rdf:about="">
        <dc:format>image/svg+xml</dc:format>
        <dc:type
           rdf:resource="http://purl.org/dc/dcmitype/StillImage" />
        <dc:title></dc:title>
      </cc:Work>
    </rdf:RDF>
  </metadata>
  <defs
     id="defs14" />
  <path
     style="color-rendering:auto;color:#000000;isolation:auto;mix-blend-mode:normal;shape-rendering:auto;solid-color:#000000;image-rendering:auto"
     d="m11.1 5.7h39.4v19.9h-39.4zm-4.05 3.83h86.6v19.9h-86.6z"
     fill="#666"
     id="path2" />
  <rect
     style="color-rendering:auto;color:#000000;isolation:auto;mix-blend-mode:normal;shape-rendering:auto;solid-color:#000000;image-rendering:auto"
     height="75.8"
     width="92.4"
     y="14.9"
     x="3.87"
     fill="#ececec"
     id="rect4" />
  <path
     id="path38"
     style="stroke-width:0.816643"
     d="M 35.116057,30.030319 29.07358,48.408783 h 3.547633 l 1.247422,-4.085951 h 5.954008 l 1.203187,4.085951 h 3.636103 L 38.707925,30.030319 Z m 1.742852,4.534405 h 0.04424 l 2.008262,6.743475 h -4.131532 z" />
  <path
     d="m 30.3641,59.525213 v -6.739524 h -5.731212 c -2.218297,0 -4.024214,-2.361835 -4.024214,-5.264407 V 32.324681 c 0,-2.903396 1.805249,-5.266052 4.024214,-5.266052 h 25.628375 c 2.218297,0 4.022877,2.362656 4.022877,5.266052 v 15.196601 c 0,2.902572 -1.80458,5.264407 -4.022877,5.264407 v 3.694784 c 3.874502,0 7.027169,-4.019394 7.027169,-8.959191 V 32.324681 c 0,-4.9398 -3.152,-8.960012 -7.027169,-8.960012 H 24.632888 c -3.875837,0 -7.028505,4.020212 -7.028505,8.960012 v 15.196601 c 0,4.939797 3.152668,8.959191 7.028505,8.959191 h 2.726921 v 6.548045 c 0,1.005055 0.527337,1.916423 1.311996,2.271438 0.223235,0.101084 0.452481,0.151227 0.677719,0.151227 0.548728,0 1.075398,-0.290901 1.447007,-0.830009 l 5.593529,-8.139875 h 5.582835 v -3.694784 h -6.97704 z"
     id="path14"
     style="stroke-width:0.741117" />
  <path
     style="stroke-width:0.741117"
     d="M 77.450217,42.847798 H 60.099516 v 3.694782 h 17.350701 c 2.218298,0 4.024211,2.362657 4.024211,5.26605 v 15.194138 c 0,2.903393 -1.805245,5.26605 -4.024211,5.26605 h -5.730544 v 6.742814 l -4.632426,-6.74117 H 51.821172 c -2.217629,0 -4.022876,-2.362656 -4.022876,-5.266052 V 51.80863 c 0,-2.903393 1.805247,-5.26605 4.022876,-5.26605 v -3.694782 c -3.8745,0 -7.027836,4.020213 -7.027836,8.960011 v 15.195779 c 0,4.942266 3.152669,8.960834 7.027836,8.960834 h 13.871203 l 5.595537,8.143972 a 1.8881252,2.3215659 0 0 0 1.444332,0.825082 c 0.225226,0 0.454486,-0.04847 0.67772,-0.149553 0.785995,-0.355023 1.314668,-1.268029 1.314668,-2.274722 v -6.545583 h 2.725585 c 3.875837,0 7.028503,-4.019396 7.028503,-8.960834 V 51.808629 c 0,-4.940619 -3.152666,-8.960832 -7.028503,-8.960831 z"
     id="path16" />
  <path
     d="m 56.53973,65.491256 c 0,2.015846 1.374064,3.323468 3.614872,3.323468 2.691964,-0.05352 5.354913,-1.656027 6.221661,-2.37917 0.866742,-0.724899 3.201153,-3.240971 4.231698,-5.233115 1.303866,0.577458 1.921629,1.544569 1.921629,2.615241 0,2.315981 -2.379336,3.659584 -6.176729,4.067668 l 1.842065,2.391453 c 5.947409,-0.73016 7.971064,-3.071592 7.971064,-6.501247 0,-2.896951 -1.944092,-4.655659 -4.436689,-5.42619 0.04584,-0.212378 0.12916,-0.43441 0.175958,-0.649421 l -3.379934,-0.564295 c -0.02231,0.320322 -0.09076,0.379123 -0.15724,0.700322 a 13.596482,12.747992 0 0 0 -2.997108,0.192193 c 0,-0.579214 0.02231,-2.124669 0.04584,-2.681062 2.813649,-0.107072 5.580496,-0.320321 8.142356,-0.685404 l -0.29763,-3.129517 c -2.630191,0.49321 -5.169586,0.751225 -7.662181,0.880233 0.06739,-0.623095 0.160984,-2.384436 0.160984,-2.384436 l -3.569004,-0.255379 c -0.0468,0.858291 -0.06739,1.866649 -0.113276,2.745126 a 144.69779,135.66791 0 0 1 -4.438563,0 l 0.160068,3.024205 h 0.387523 c 0.938818,0 2.472,-0.04474 3.846061,-0.08688 0,0.835473 0.02151,2.637183 0.04493,3.452472 -3.227362,1.262863 -5.538372,3.602542 -5.538372,6.583741 z m 10.751012,-4.847851 c -0.481109,0.89954 -1.052074,1.717461 -1.692304,2.401111 -0.09363,-0.708223 -0.13852,-1.436631 -0.183446,-2.208036 0.250834,-0.04212 1.257061,-0.193076 1.875763,-0.193076 z m -5.032925,1.244435 c 0.115138,1.201433 0.252706,2.358986 0.457707,3.409472 -0.593429,0.279073 -1.164397,0.451085 -1.693242,0.473021 -1.144741,0.04298 -1.144741,-0.642401 -1.144741,-0.944294 9.36e-4,-1.138246 0.938822,-2.186974 2.380276,-2.938199 z"
     id="path18"
     style="stroke-width:0.906335" />
</svg>
