<svg width="18" height="18" version="1.1" viewBox="0 0 56.2 56.2" xmlns="http://www.w3.org/2000/svg"><g fill="#3f3f3f"><path d="m14.62 10.47-4.84 14.74h2.842l0.9992-3.276h4.769l0.9638 3.276h2.913l-4.769-14.74zm1.396 3.636h0.03543l1.609 5.407h-3.31z" stroke-width=".6545"/><path d="m10.69 34.91v-5.767h-4.826c-1.868 0-3.388-2.021-3.388-4.505v-13c0-2.484 1.52-4.506 3.388-4.506h21.58c1.868 0 3.387 2.022 3.387 4.506v13c0 2.484-1.519 4.505-3.387 4.505v3.162c3.262 0 5.917-3.439 5.917-7.666v-13c0-4.227-2.654-7.667-5.917-7.667h-21.58c-3.263 0-5.918 3.44-5.918 7.667v13c0 4.227 2.655 7.666 5.918 7.666h2.296v5.603c0 0.86 0.444 1.64 1.105 1.944 0.188 0.0865 0.381 0.1294 0.5706 0.1294 0.462 0 0.9055-0.2489 1.218-0.7102l4.71-6.965h5.624v-3.162h-6.798z" stroke-width=".6291"/><path d="m49.93 18.27h-14.32v3.332h14.32c1.831 0 3.322 2.131 3.322 4.749v13.7c0 2.618-1.49 5.248-3.322 5.248h-4.731v5.582l-3.824-5.58h-12.6c-1.831 0-3.321-2.63-3.321-5.248v-13.7c0-2.618 1.49-4.749 3.321-4.749v-3.332c-3.198 0-5.802 3.625-5.802 8.08v13.7c0 4.457 2.603 8.58 5.802 8.58h11.45l4.619 6.845c0.2963 0.472 0.7326 0.7443 1.192 0.744 0.1859 0 0.3752-0.04371 0.5595-0.1349 0.6488-0.3202 1.085-1.143 1.085-2.051v-5.404h2.25c3.2 0 5.802-4.124 5.802-8.58v-13.7c0-4.455-2.603-8.081-5.802-8.081z" stroke-width=".6394"/><path d="m37.24 25.47c-0.03427 0.7791-0.05425 1.559-0.09542 2.338-1.279 0.01918-2.558 0.02306-3.836 6e-3 0.0376 0.7112 0.07521 1.422 0.1128 2.134 0.3327 4.3e-5 0.6546-0.0035 0.9885-0.01005 0.9024-0.01737 1.805-0.04614 2.707-0.07292 0.0016 0.9981 0.01277 1.994 0.03326 2.994 0.0035 0.145 0.0072 0.2901 0.0107 0.4351-0.8183 0.3131-1.61 0.7075-2.322 1.221-0.4714 0.3387-0.9081 0.7282-1.284 1.172-0.01154 0.01459-0.0644 0.07775-0.07586 0.09163-0.5562 0.6811-0.956 1.501-1.087 2.375-0.03633 0.235-0.05347 0.4728-0.05395 0.7105 7.55e-4 0.0209 4.12e-4 0.08641 0.0025 0.1244 0.01738 0.5821 0.2009 1.173 0.5871 1.617 0.3898 0.4558 0.9582 0.7261 1.541 0.8329 0.3553 0.06688 0.7194 0.0831 1.08 0.05391 0.03018-0.0029 0.09407-0.0071 0.1372-0.01156 0.06976-0.0062 0.1472-0.01502 0.2063-0.02278 0.236-0.02905 0.4702-0.0715 0.7023-0.123 0.02827-0.0063 0.08966-0.0204 0.1231-0.02876 1.01-0.2457 1.974-0.6633 2.868-1.192 0.4239-0.2538 0.8373-0.5323 1.191-0.8796 0.0998-0.09428 0.2105-0.2032 0.3136-0.3074 0.5469-0.5547 1.07-1.148 1.553-1.75 0.5688-0.7137 1.107-1.459 1.524-2.273 0.02824-0.02756 0.03322-0.1243 0.08292-0.08805 0.3285 0.1455 0.6544 0.3047 0.9394 0.5264 0.4715 0.3541 0.8401 0.8585 0.9828 1.435 0.1312 0.525 0.09223 1.088-0.08686 1.597-0.2154 0.6069-0.6553 1.112-1.175 1.481-0.6754 0.4822-1.465 0.7768-2.262 0.9858-0.5123 0.1325-1.034 0.2281-1.558 0.2984 0.4165 0.5413 0.8331 1.083 1.25 1.624 0.1012-0.01253 0.1955-0.02615 0.3008-0.04075 0.105-0.01549 0.213-0.03145 0.3096-0.04746 0.08099-0.01355 0.1556-0.02489 0.2301-0.03843 1.035-0.182 2.066-0.4467 3.015-0.9071 0.7392-0.3601 1.429-0.8595 1.911-1.534 0.4486-0.618 0.6944-1.366 0.7731-2.121 0.0264-0.2358 0.03702-0.4731 0.03742-0.7103-3.18e-4 -0.02488-3.97e-4 -0.09058-0.0019-0.1316-0.01607-0.7766-0.2234-1.556-0.6422-2.213-0.4736-0.7546-1.193-1.329-1.985-1.721-0.3091-0.1543-0.631-0.282-0.9593-0.3891-0.04353-0.01347-0.113-0.03586-0.1664-0.0527-0.05021-0.01599-0.1004-0.03197-0.1506-0.04787 0.04167-0.1785 0.08108-0.3577 0.1361-0.5328-0.8074-0.1349-1.615-0.2699-2.422-0.4048-0.0466 0.1667-0.09749 0.3322-0.1305 0.5025-0.0019 0.06066-0.02605 0.09238-0.08879 0.07387-0.2657-0.01059-0.5206-0.01745-0.7849-0.01364-0.1193 0.0017-0.2576 0.0051-0.3788 0.01071-0.2251 0.0097-0.4543 0.02601-0.6744 0.04787-0.1508 0.01478-0.3172 0.03439-0.4734 0.05582-0.2115 0.02852-0.4455 0.06965-0.6702 0.1077 0.0029-0.8952 0.01325-1.791 0.04279-2.685 0.0022-0.06074 0.0043-0.1216 0.0063-0.1824 1.134-0.04286 2.268-0.1015 3.4-0.1876 0.653-0.05072 1.319-0.1094 1.975-0.1798 0.4932-0.05192 0.9952-0.1126 1.492-0.1783 0.05368-0.0078 0.1259-0.01745 0.1868-0.02592-0.07029-0.7397-0.1406-1.479-0.2109-2.219-2.161 0.3936-4.35 0.6174-6.542 0.7278-0.0595 0.0035-0.119 0.0069-0.1785 0.0098 0.01324-0.1307 0.02771-0.2779 0.0402-0.3983 0.0497-0.5719 0.08097-1.14 0.1148-1.712-0.8696-0.0623-1.739-0.1246-2.609-0.1869-5.71e-4 0.01094-0.0011 0.02178-0.0017 0.03266zm4.421 9.287c-0.4308 0.8069-0.9573 1.565-1.588 2.228-0.09414 0.1025-0.1883 0.2049-0.2824 0.3074-0.06888-0.5496-0.1391-1.099-0.1746-1.652-0.0253-0.3475-0.04385-0.6954-0.06542-1.043 0.5962-0.09721 1.196-0.1854 1.801-0.2057 0.171-0.0026 0.342-0.0051 0.5129-0.0078-0.06755 0.1244-0.1351 0.2487-0.2027 0.3731zm-4.349 0.9408c0.04877 0.508 0.1041 1.026 0.1688 1.525 0.06917 0.5403 0.1569 1.078 0.2624 1.613-0.4535 0.2169-0.9255 0.4103-1.426 0.4844-0.352 0.05023-0.7284 0.05976-1.059-0.08955-0.2442-0.1098-0.4273-0.3393-0.4809-0.6018-0.05359-0.2669-0.03617-0.5453 0.02161-0.81 0.134-0.5905 0.5084-1.097 0.9508-1.498 0.4021-0.3671 0.87-0.6527 1.353-0.9004 0.05762-0.03077 0.1152-0.06152 0.1729-0.09227 0.01215 0.1231 0.02431 0.2462 0.03646 0.3694z" stroke-width=".7889"/></g></svg>
