<svg xmlns:rdf="http://www.w3.org/1999/02/22-rdf-syntax-ns#" xmlns="http://www.w3.org/2000/svg" height="20" width="20" version="1.1" xmlns:cc="http://creativecommons.org/ns#" xmlns:dc="http://purl.org/dc/elements/1.1/" viewBox="0 0 100 100">
 <g fill="#258fd6" transform="matrix(.05 0 0 -.05 -3.28 94.2)">
  <path fill="#258fd6" d="m960 1.24e3 531-531-531-531q-19-19-19-45t19-45l166-166q19-19 45-19t45 19l742 742q19 19 19 45t-19 45l-742 742q-19 19-45 19t-45-19l-166-166q-19-19-19-45t19-45zm-787-20 531-531l-531-531q-19-19-19-45t19-45l166-166q19-19 45-19t45 19l742 742q19 19 19 45t-19 45l-741 746q-19 19-45 19t-45-19l-166-166q-19-19-19-45t19-45z"/>
 </g>
</svg>
