<svg xmlns:rdf="http://www.w3.org/1999/02/22-rdf-syntax-ns#" xmlns="http://www.w3.org/2000/svg" height="14" width="14" version="1.1" xmlns:cc="http://creativecommons.org/ns#" xmlns:dc="http://purl.org/dc/elements/1.1/" viewBox="0 0 100 100">
 <g fill="#b3b3b3" transform="matrix(.0427 .0161 .00838 -.0438 5.54 70)">
  <path fill="#b3b3b3" d="m1.42e3 361c2.84 43-31.3 71.8-59 99-62.8 61.9-124 126-188 187-40 29-90 22-130-14 33.6-32.9 79.4-68.8 71.6-122-3.36-66.3-85.9-109-142-74.1-28.5 9.3-49.4 62.8-73.2 52-38-39.2-31.7-108 10.9-141 68.4-68.3 136-137 205-205 42.3-35 109-23.7 142 18.3 47.6 48.2 97.1 94.6 143 144 10 16 20 36 20 56zm-663 659c2.88 43.9-32.6 72.8-60.6 101-61.7 61-122 124-184 184-41.9 32.6-104 19.5-137-19.5-48-50-98-90-146-140-35-40-24-100 17-130 68-72 136-141 205-208 38-32 100-27 133 10-33.6 32.9-79.4 68.8-71.6 122 3.36 66.3 85.9 109 142 74.1 28.5-9.3 49.4-62.8 73.2-52 19 7 26.4 36.5 29 54zm873-663c2.25-82.6-51.1-163-113-217-50-45.5-100-99.1-150-147-110-89-290-77-380 30.9-79 74.7-154 147-226 223-94 111-83 293 24 391l-51 52c-100-109-286-118-396-19-79 77-156 155-234 234-103 110-98.4 300 13 400 57.6 55.9 113 115 172 168 111 89.4 290 76.7 385-30.8 73.3-74.7 149-147 221-223 93-110 82-291-25-389l51.9-46.8c99.6 109 286 118 396 19 79-76.9 156-155 234-234 50-51 80-122 80-193l-2.09-7.23z"/>
 </g>
</svg>
