<svg xmlns:rdf="http://www.w3.org/1999/02/22-rdf-syntax-ns#" xmlns="http://www.w3.org/2000/svg" height="20" width="20" version="1.1" xmlns:cc="http://creativecommons.org/ns#" xmlns:dc="http://purl.org/dc/elements/1.1/" viewBox="0 0 100 100">
 <g transform="matrix(.0533 0 0 -.0533 5.76 82.6)">
  <path d="m223-20.2h331v274h-331zm404 0h368v274h-368zm-404 335h331v305h-331zm404 0h368v305h-368zm-404 365h331v274h-331zm846-700h368v274h-368zm-442 700h368v274h-368zm442-365h368v305h-368zm-558 775c-0.396 97.5 0.792 195-0.594 292-13.6 26.9-48 15.8-72.4 18.2-21 1.02-56.4 1.72-55-27.4 0.394-96.5-0.789-193 0.594-289 7.07-32.2 43.1-25.1 67.6-25.7 24.6-0.96 59-2.41 59.8 32zm556-408h368v274h-368zm210 408c-0.396 97.5 0.792 195-0.594 292-13.6 26.9-48 15.8-72.4 18.2-21 1.02-56.4 1.72-55-27.4 0.394-96.5-0.789-193 0.594-289 7.07-32.2 43.1-25.1 67.6-25.7 24.6-0.96 59-2.41 59.8 32zm384 64c-0.099-429 0.198-858-0.148-1.29e3 -1.94-71.3-71.9-130-142-122-467 0.0989-933-0.198-1.4e3 0.148-69.8 6-128 76-120 146 0.0989 424-0.198 848 0.148 1.27e3 1.94 70 72 130 142 120h114c1.29 39.5-2.95 79.4 2.94 118 22.2 65.9 100 92.9 164 90.5 60.2 0.605 126 3.53 175-37.4 32.3-21.3 45.1-60.2 41.3-97.3v-74.3h384c1.29 39.5-2.95 79.4 2.94 118 22.2 65.9 100 92.9 164 90.5 60.2 0.605 126 3.53 175-37.4 32.3-21.3 45.1-60.2 41.3-97.3v-74.3c51-1.14 102 2.55 153-2.38 57.4-11.3 104-66.5 103-126z"/>
 </g>
</svg>
