<svg xmlns="http://www.w3.org/2000/svg" version="1.1" width="24" height="24" viewBox="0 0 100 100">
<g transform="translate(10,80) scale(0.05,-0.05)">
<path fill="#362318" d="M1536 192v-128q0 -26 -19 -45t-45 -19h-1408q-26 0 -45 19t-19 45v128q0 26 19 45t45 19h1408q26 0 45 -19t19 -45zM1536 704v-128q0 -26 -19 -45t-45 -19h-1408q-26 0 -45 19t-19 45v128q0 26 19 45t45 19h1408q26 0 45 -19t19 -45zM1536 1216v-128q0 -26 -19 -45t-45 -19h-1408q-26 0 -45 19t-19 45v128q0 26 19 45t45 19h1408q26 0 45 -19t19 -45z" />    
</g></svg>
