<svg xmlns:rdf="http://www.w3.org/1999/02/22-rdf-syntax-ns#" xmlns="http://www.w3.org/2000/svg" height="18" width="18" version="1.1" xmlns:cc="http://creativecommons.org/ns#" xmlns:dc="http://purl.org/dc/elements/1.1/" viewBox="0 0 100 100">
 <g transform="matrix(1.07 0 0 1.07 -3.73 7.01)">
  <path fill="#e54519" d="m52.8 9.41c-12.9-0.5-25.9 5.49-33.7 15.8-4.97 6.49-8.06 14.6-7.83 22.8-0.265 13.1-0.00015 26.1-0.0959 39.2 3.21 0 6.42 0.0086 9.63 0-0.0121-11.9 0.0214-23.8-0.024-35.7-0.72-9.08 2.73-18.5 9.51-24.6 9.31-8.56 23.9-10.8 35.3-5.06 9.07 4.37 16 13.4 16.9 23.6 1.08 10.4-3.94 21.2-12.7 27-7.72 5.25-17.8 7.07-26.8 4.37 0.0302-3.61-0.0938-7.23 0.0537-10.8 0.595-2.16 2.98-0.389 4.4-0.236 7.6 1.74 16.3-1.5 20.3-8.38 3.73-6.01 3.37-14.4-1.26-19.8-5.2-6.6-14.9-9.1-22.5-5.5-6.2 2.8-11.1 9.2-10.8 16.2-0.233 13 0.0122 25.9-0.111 38.9 6.04-0.0286 12.1 0.0284 18.1 0.0611 8.81-0.0462 17.7-2.55 24.8-7.85 10.2-7.3 16.8-19.6 16.3-32.1-0.4-11.6-6.2-22.8-15.4-29.7-6.9-5.2-15.5-8.02-24.1-8.29z"/>
 </g>
</svg>
