<svg xmlns:rdf="http://www.w3.org/1999/02/22-rdf-syntax-ns#" xmlns="http://www.w3.org/2000/svg" height="28" width="28" version="1.1" xmlns:cc="http://creativecommons.org/ns#" xmlns:dc="http://purl.org/dc/elements/1.1/" viewBox="0 0 100 100">
 <path style="color-rendering:auto;color:#000000;isolation:auto;mix-blend-mode:normal;shape-rendering:auto;solid-color:#000000;image-rendering:auto" d="m12.3-0.05h75.5c6.68 0 12.1 5.38 12.1 12.1v75.9c0 6.68-5.38 12.1-12.1 12.1h-75.5c-6.72 0-12.1-5-12.1-11.6v-75.9c0-6.7 5.38-12.1 12.1-12.1z" fill="#f58432"/>
 <g transform="matrix(.0398 0 0 -.0424 24.3 78.7)">
  <path fill="#fff" d="m384 192q0-80-56-136t-136-56-136 56-56 136 56 136 136 56 136-56 56-136zm512-123q2-28-17-48-18-21-47-21h-135q-25 0-43 16.5t-20 41.5q-22 229-184 392-163 162-392 184-25 2-41.5 20t-16.5 43v135q0 29 21 47 17 17 43 17h5q160-13 306-80 146-68 259-182 114-113 182-259 67-146 80-306zm512-2q0-27-20-47t-50-20h-140q-20 0-40 17.5t-20 42.5q-20 215-100 408-93 194-236 336-142 143-336 236-193 80-408 100-25 0-42.5 20t-17.5 40v143q0 28 20 46 18 18 44 18h3q262 0 501-110 240-110 426-296t296-426q110-239 120-501z"/>
 </g>
</svg>
