<svg width="32" height="32" version="1.1" viewBox="0 0 100 100" xmlns="http://www.w3.org/2000/svg">
 <g>
  <path d="m14.9 3.76h71c6.28 0 11.4 5.06 11.4 11.4v71.4c0 6.28-5.06 11.4-11.4 11.4h-71c-6.27 0-11.3-4.7-11.3-10.9v-71.4c0-6.3 5.06-11.4 11.4-11.4z" color="#000000" color-rendering="auto" fill="#806C5D" image-rendering="auto" shape-rendering="auto" solid-color="#000000" style="isolation:auto;mix-blend-mode:normal"/>
  <g transform="matrix(.0138 0 0 -.0138 61.2 38.4)" fill="#d7d2cf">
   <path d="m1480 486q46-26 59.5-77.5 20-51-10-97l-70-110q-20-46-70-59-50-14-100 12l-266 153v-307q0-52-38-90t-90-38h-128q-52 0-90 38t-38 90l4 307-266-153q-46-26-98-12-51 13-77 59l-64 110q-26 46-13 97 14 52 60 78l266 154-266 154q-46 26-60 78-13 51 13 97l64 110q26 46 77.5 59.5 52 10 98-10l266-153v307q0 52 38 90t90 38h128q52 0 90-38t38-90v-307l266 153q46 26 97.5 12.5t77.5-59.5l64-110q26-46 12.5-97.5 0-52-50-78l-260-154z" fill="#d7d2cf"/>
  </g>
  <g transform="matrix(.938 0 0 1.07 1.18 -.234)" fill="#d7d2cf">
   <path d="m22.7 75.7c13.3-0.9 29.2 2.9 39.9-7.1 11.8-11.4 8.3-35.3-8.2-40.5-10.2-3.2-21.1-1.8-31.7-2.1zm12.4-41.6c8.27-0.861 19.2 1.1 21.7 10.4 2.97 8.86-0.88 20.9-11.1 22.5-3.81 0.886-7.74 0.523-11.6 0.6 0-11.2-1e-6 -22.4 0-33.6h1z" fill="#d7d2cf"/>
  </g>
 </g>
</svg>
