<svg xmlns:rdf="http://www.w3.org/1999/02/22-rdf-syntax-ns#" xmlns="http://www.w3.org/2000/svg" height="28" width="28" version="1.1" xmlns:cc="http://creativecommons.org/ns#" xmlns:dc="http://purl.org/dc/elements/1.1/" viewBox="0 0 100 100">
 <path style="color-rendering:auto;color:#000000;isolation:auto;mix-blend-mode:normal;shape-rendering:auto;solid-color:#000000;image-rendering:auto" d="m12.2-0.05h75.5c6.68 0 12.1 5.38 12.1 12.1v75.9c0 6.68-5.38 12.1-12.1 12.1h-75.5c-6.67 0-12-5-12-11.6v-75.9c0-6.7 5.38-12.1 12.1-12.1z" fill="#333"/>
 <g transform="matrix(.0138 0 0 -.0138 61.6 35.4)">
  <path fill="#fff" d="m1.48e3 486q46-26 59.5-77.5 20-51-10-97l-70-110q-20-46-70-59-50-14-100 12l-266 153v-307q0-52-38-90t-90-38h-128q-52 0-90 38t-38 90l4 307-266-153q-46-26-98-12-51 13-77 59l-64 110q-26 46-13 97 14 52 60 78l266 154-266 154q-46 26-60 78-13 51 13 97l64 110q26 46 77.5 59.5 52 10 98-10l266-153v307q0 52 38 90t90 38h128q52 0 90-38t38-90v-307l266 153q46 26 97.5 12.5t77.5-59.5l64-110q26-46 12.5-97.5 0-52-50-78l-260-154z"/>
 </g>
 <g fill="#fff" transform="matrix(.938 0 0 1.07 1.6 -3.2)">
  <path fill="#fff" d="m22.7 75.7c13.3-0.9 29.2 2.9 39.9-7.1 11.8-11.4 8.3-35.3-8.2-40.5-10.2-3.2-21.1-1.8-31.7-2.1v49.7zm12.4-41.6c8.27-0.861 19.2 1.1 21.7 10.4 2.97 8.86-0.88 20.9-11.1 22.5-3.81 0.886-7.74 0.523-11.6 0.6 0-11.2-0.000001-22.4 0-33.6h1z"/>
 </g>
</svg>
