<svg xmlns:rdf="http://www.w3.org/1999/02/22-rdf-syntax-ns#" xmlns="http://www.w3.org/2000/svg" height="28" width="28" version="1.1" xmlns:cc="http://creativecommons.org/ns#" xmlns:dc="http://purl.org/dc/elements/1.1/" viewBox="0 0 100 100">
 <path style="color-rendering:auto;color:#000000;isolation:auto;mix-blend-mode:normal;shape-rendering:auto;solid-color:#000000;image-rendering:auto" d="m12.1 0.424h75.5c6.68 0 12.1 5.38 12.1 12.1v75.9c0 6.68-5.38 12.1-12.1 12.1h-75.5c-6.72 0-12.1-5-12.1-11.6v-75.9c1.24e-7 -6.7 5.38-12.1 12.1-12.1z" fill="#3c5a98"/>
 <g transform="matrix(.0436 0 0 -.0436 19.8 81.2)">
  <path fill="#fff" d="m959 1.52e3v-264h-157q-86 0-116-36t-30-108v-189h293l-39-296h-254v-759h-306v759h-255v296h255v218q0 186 104 288t277 102q147 0 228-12z"/>
 </g>
</svg>
