<svg xmlns:rdf="http://www.w3.org/1999/02/22-rdf-syntax-ns#" xmlns="http://www.w3.org/2000/svg" height="28" width="28" version="1.1" xmlns:cc="http://creativecommons.org/ns#" xmlns:dc="http://purl.org/dc/elements/1.1/" viewBox="0 0 100 100">
 <path style="color-rendering:auto;color:#000000;isolation:auto;mix-blend-mode:normal;shape-rendering:auto;solid-color:#000000;image-rendering:auto" d="m12.3 0.424h75.5c6.68 0 12.1 5.38 12.1 12.1v75.9c0 6.68-5.38 12.1-12.1 12.1h-75.5c-6.68 0-12.1-5.38-12.1-12.1v-75.9c0.012-6.2 5.39-11.6 12.1-11.6z" fill="#86953e"/>
 <g stroke-linejoin="round" stroke-width="5.04">
  <path style="color-rendering:auto;color:#000000;isolation:auto;mix-blend-mode:normal;shape-rendering:auto;solid-color:#000000;image-rendering:auto" d="m58.7 37.9c13.7-0.0003 24.7 7.31 24.7 16.3-0.01 4.97-5.46 10.7-11.3 13.7 1.09 5.35 9.18 8.06 9.18 8.06s-5.7 1.71-13.6-6.45c-1.71 0.247-8.04 1.91-9.79 1.91-13.7 0.000299-23.9-8.25-23.9-17.3 0.0026-9.02 11.1-16.3 24.7-16.3z" stroke="#fff" fill="#fff"/>
  <path style="color-rendering:auto;color:#000000;isolation:auto;mix-blend-mode:normal;shape-rendering:auto;solid-color:#000000;image-rendering:auto" d="m49.8 31.1c-13.7-0.0003-24.7 7.31-24.7 16.3 0.01 4.97 4.86 9.93 10.7 13-1.09 5.35-6.78 10-6.78 10-2.69 0.115 7.63 2.27 15.6-5.89 1.71 0.247 4.31 0.104 6.06 0.108 13.7 0.000299 23.9-8.25 23.9-17.3-0.0026-9.02-11.1-16.3-24.7-16.3z" stroke="#86953e" fill="#86953e"/>
  <path style="color-rendering:auto;color:#000000;isolation:auto;mix-blend-mode:normal;shape-rendering:auto;solid-color:#000000;image-rendering:auto" d="m42.3 27.2c-13.7-0.0003-24.7 7.31-24.7 16.3 0.01 4.97 4.86 9.93 10.7 13-1.09 5.35-10.7 10.3-10.7 10.3s11.6 2.04 19.5-6.11c1.71 0.247 4.31 0.104 6.06 0.108 13.7 0.000299 23.9-8.25 23.9-17.3-0.0026-9.02-11.1-16.3-24.7-16.3z" stroke="#fff" fill="#86953e"/>
 </g>
</svg>
