<svg xmlns:rdf="http://www.w3.org/1999/02/22-rdf-syntax-ns#" xmlns="http://www.w3.org/2000/svg" version="1.1" xmlns:cc="http://creativecommons.org/ns#" xmlns:dc="http://purl.org/dc/elements/1.1/" viewBox="0 0 20 20">
 <path style="color-rendering:auto;color:#000000;isolation:auto;mix-blend-mode:normal;shape-rendering:auto;solid-color:#000000;image-rendering:auto" d="m2.6-0.0158h14.9c1.32 0 2.39 1.07 2.39 2.4v15c0 1.32-1.06 2.4-2.39 2.4h-14.9c-1.33 0-2.39-0.991-2.39-2.3v-15c0-1.33 1.06-2.4 2.39-2.4z" fill="#f6c915"/>
 <g fill="#1a171b" transform="matrix(.2 0 0 .2 -13.2 -39.6)">
  <path d="m104 271c-4.04-0.003-8.56-0.513-11.6-3.54-2.62-2.7-2.79-6.72-2.31-10.2 0.522-3.74 1.61-7.38 2.43-11.1 2.6-10.9 5.2-21.8 7.81-32.6 3.9-0.603 7.79-1.21 11.7-1.81-3.52 14.6-7.06 29.2-10.6 43.8-0.39 1.77-0.608 4.16 1.19 5.26 0.814 1 3.21 0.434 3.47 1.32-0.725 2.97-1.45 5.95-2.18 8.92"/>
  <path d="m147 246c0.132 7.87-3.34 16-9.87 20.6-5.59 4.01-12.9 5.15-19.5 3.94-1.13 4.55-2.26 9.1-3.39 13.7h-11.2c4.17-17.4 8.35-34.8 12.5-52.2 6.07-1.74 12.5-2.85 18.8-2.09 4.57 0.6 8.91 3.38 10.9 7.62 1.28 2.63 1.79 5.59 1.79 8.5m-27.4 15.5c4.49 0.963 9.61-0.231 12.6-3.85 3.01-3.57 4.05-8.53 3.38-13.1-0.388-2.36-1.81-4.91-4.38-5.3-2.1-0.378-4.27-0.121-6.35 0.274-1.76 7.32-3.52 14.6-5.28 21.9z"/>
 </g>
</svg>
