<svg xmlns="http://www.w3.org/2000/svg" viewBox="0 0 28 27.999999" height="32" width="32" version="1.1">
 <g fill="#806C5D" transform="matrix(.266 0 0 .263 7.9 -12.9)">
  <path style="color-rendering:auto;color:#000000;isolation:auto;mix-blend-mode:normal;shape-rendering:auto;solid-color:#000000;image-rendering:auto" fill="#806C5D" d="m-14.7 51.8h75.5c6.68 0 12.1 5.38 12.1 12.1v75.9c0 6.68-5.38 12.1-12.1 12.1h-75.5c-6.72 0-12.1-5-12.1-11.6v-75.6c0-6.7 5.38-12.6 12.1-12.6z"/>
 </g>
 <path fill="#d7d2cf" d="m14 4.33c-2.6 0.02-4.99 0.3-6.41 0.95 0 0-2.81 1.26-2.81 5.52 0 1-0.02 2.2 0.01 3.4 0.1 4.2 0.77 8.4 4.65 9.4 1.76 0.5 3.36 0.6 4.56 0.5 2.2-0.1 3.5-0.8 3.5-0.8l-0.1-1.6s-1.6 0.5-3.4 0.4c-1.8 0-3.6-0.2-3.9-2.4-0.1-0.2-0.1-0.4-0.1-0.6 0 0 1.8 0.5 4 0.6 1.4 0 2.6-0.1 3.9-0.3 2.5-0.3 4.7-1.8 4.9-3.2 0.5-2.2 0.4-5.4 0.4-5.4 0-4.26-2.8-5.52-2.8-5.52-1.4-0.65-3.8-0.93-6.4-0.95zm-2.9 3.36c1.1 0 1.9 0.4 2.4 1.21l0.5 0.86 0.5-0.86c0.5-0.81 1.3-1.21 2.4-1.21 0.9 0 1.6 0.32 2.2 0.94 0.5 0.63 0.8 1.47 0.8 2.57v5.2h-2v-5.1c0-1-0.5-1.59-1.4-1.59-1 0-1.5 0.69-1.5 1.89v2.8h-2v-2.8c0-1.2-0.5-1.89-1.5-1.89-0.9 0-1.4 0.59-1.4 1.59v5.1h-2.01v-5.2c0-1.1 0.27-1.94 0.81-2.57 0.56-0.62 1.3-0.94 2.2-0.94z"/>
</svg>
