<svg xmlns:rdf="http://www.w3.org/1999/02/22-rdf-syntax-ns#" xmlns="http://www.w3.org/2000/svg" height="28" width="28" version="1.1" xmlns:cc="http://creativecommons.org/ns#" xmlns:dc="http://purl.org/dc/elements/1.1/" viewBox="0 0 100 100">
 <g opacity=".960" transform="matrix(.0541 0 0 -.0683 1.59 90)" fill="#e4ce72">
  <path fill="#e4ce72" d="m1.79e3 826v-794q0-66-47-113t-113-47h-1.47e3q-66 0-113 47t-47 113v794q44-49 101-87 362-246 497-345 57-42 92-66 36-23 95-48 59-24 110-24h1 1q51 0 110 24.5t94.5 48 92.5 65.5q170 123 498 345 57 39 100 87zm0 294q0-79-49-151t-122-123q-376-261-468-325-10-7-42.5-30.5t-54-38q-10-14-50-32-26-18-53-27t-50-9h-1-1q-23 0-50 9t-57.5 27-52 32.5-54 38q-32 24-42 31-91 64-262 183-171 118-205 142-62 42-117 116-55 78-55 138 0 78 41.5 130t118 52h1.47e3q65 0 112-47 47.5-47 47.5-113z"/>
 </g>
 <g fill="#b4a278" transform="matrix(1.33 0 .243 1.33 -16 -24.3)">
  <path fill="#b4a278" d="m45 34.1c-1.02-0.156-2.13-0.0653-2.98 0.581-1.71 1.23-2.33 3.53-2.09 5.55 0.0674 0.891 0.81 1.66 1.72 1.69 0.693 0.014 1.49 0.0351 2.08-0.303 0.425-2.51 0.85-5.01 1.28-7.52zm3.61 11.8c-1.3 0.0047-2.69-0.271-3.68-1.18-1.27 0.642-2.63 1.17-4.07 1.17-1.92 0.151-4.08-0.518-5.11-2.25-1.04-1.66-0.948-3.74-0.661-5.61 0.579-3.39 2.96-6.49 6.24-7.64 2.44-0.911 5.11-0.547 7.59 0.0211 0.431 0.189 1.24 0.184 1.42 0.564-0.689 3.64-1.38 7.27-2.07 10.9 1.27 0.348 2.67-0.159 3.51-1.16 1.48-1.63 2.03-3.89 2.12-6.04 0.0696-2.12-0.638-4.36-2.29-5.76-1.94-1.72-4.68-2.09-7.18-2.01-3.67 0.0735-7.31 1.8-9.54 4.74-2.39 3.08-3.35 7.24-2.52 11.1 0.539 2.36 2.26 4.45 4.55 5.28 2.38 0.913 5.02 0.778 7.49 0.361 0.797-0.152 1.58-0.37 2.34-0.662 0.508 1.16 0.956 2.35 1.28 3.58-1.88 0.896-3.99 1.13-6.05 1.32-3.56 0.292-7.36-0.338-10.2-2.58-2.49-1.92-3.99-4.96-4.25-8.07-0.471-4.41 0.857-8.96 3.57-12.5 2.29-3.08 5.79-5.11 9.5-5.96 2.9-0.655 5.96-0.737 8.87-0.0754 2.61 0.578 5.11 1.92 6.74 4.08 2.02 2.58 2.56 6.05 2.01 9.22-0.563 3.13-2.26 6.16-5.01 7.85-1.35 0.89-2.96 1.32-4.57 1.31z"/>
 </g>
</svg>
