<?xml version="1.0" encoding="UTF-8" standalone="no"?>
<svg
   xmlns:dc="http://purl.org/dc/elements/1.1/"
   xmlns:cc="http://creativecommons.org/ns#"
   xmlns:rdf="http://www.w3.org/1999/02/22-rdf-syntax-ns#"
   xmlns:svg="http://www.w3.org/2000/svg"
   xmlns="http://www.w3.org/2000/svg"
   version="1.1"
   id="svg2"
   viewBox="0 0 28 27.999999"
   height="28"
   width="28">
  <metadata
     id="metadata12">
    <rdf:RDF>
      <cc:Work
         rdf:about="">
        <dc:format>image/svg+xml</dc:format>
        <dc:type
           rdf:resource="http://purl.org/dc/dcmitype/StillImage" />
        <dc:title></dc:title>
      </cc:Work>
    </rdf:RDF>
  </metadata>
  <defs
     id="defs10" />
  <g
     style="fill:#2b90d9;fill-opacity:1"
     transform="matrix(0.28,0,0,0.28,7.5744853,-14.49322)"
     id="g4173">
    <path
       style="color:#000000;isolation:auto;mix-blend-mode:normal;solid-color:#000000;fill:#2b90d9;fill-opacity:1;color-rendering:auto;image-rendering:auto;shape-rendering:auto"
       d="m -14.671707,51.773012 75.5,0 c 6.68,0 12.1,5.38 12.1,12.1 l 0,75.899998 c 0,6.68 -5.38,12.1 -12.1,12.1 l -75.5,0 c -6.72,0 -12.1,-5 -12.1,-11.6 l 0,-75.899998 c 0,-6.7 5.38,-12.588281 12.1,-12.588281 z"
       id="path4161" />
  </g>
  <path
     style="fill:#ffffff;fill-opacity:1"
     id="path4"
     d="m 22.83726,16.199208 c -0.271384,1.396159 -2.430617,2.924118 -4.910498,3.220241 -1.29315,0.154299 -2.56636,0.296123 -3.924026,0.233849 -2.220334,-0.10173 -3.97233,-0.529972 -3.97233,-0.529972 0,0.216148 0.01333,0.421951 0.03999,0.614425 0.288658,2.191223 2.172775,2.32249 3.957509,2.383698 1.801369,0.06164 3.405358,-0.444131 3.405358,-0.444131 l 0.074,1.628514 c 0,0 -1.259988,0.676594 -3.504528,0.801036 -1.237701,0.06804 -2.774511,-0.03114 -4.5644699,-0.504912 C 5.5561505,22.57443 4.8885149,18.436283 4.7863595,14.237462 4.755222,12.990803 4.7744161,11.81527 4.7744161,10.832104 c 0,-4.293512 2.8131123,-5.5520068 2.8131123,-5.5520068 C 9.0059726,4.6286699 11.439895,4.354727 13.970214,4.3340401 l 0.06217,0 c 2.530319,0.020687 4.96584,0.2946298 6.384179,0.9460571 0,0 2.813005,1.2584948 2.813005,5.5520068 0,0 0.03529,3.167777 -0.392306,5.367104" />
  <path
     style="fill:#2b90d9;fill-opacity:1"
     id="path6"
     d="m 19.911435,11.165187 0,5.198728 -2.059636,0 0,-5.045921 c 0,-1.063675 -0.447543,-1.6035634 -1.342736,-1.6035634 -0.989777,0 -1.485839,0.6404444 -1.485839,1.9068294 l 0,2.761928 -2.04748,0 0,-2.761928 c 0,-1.266385 -0.496168,-1.9068294 -1.485946,-1.9068294 -0.895191,0 -1.342735,0.5398884 -1.342735,1.6035634 l 0,5.045921 -2.059636,0 0,-5.198728 c 0,-1.062502 0.2705306,-1.9068301 0.8139375,-2.5314922 0.5603619,-0.6246622 1.2942165,-0.9448841 2.2051925,-0.9448841 1.05397,0 1.852126,0.4051026 2.379858,1.2154145 l 0.513016,0.8600036 0.513124,-0.8600036 c 0.527624,-0.8103119 1.32578,-1.2154145 2.379857,-1.2154145 0.910868,0 1.644722,0.3202219 2.205192,0.9448841 0.5433,0.6246621 0.813831,1.4689902 0.813831,2.5314922" />
</svg>
