<svg width="196" height="28" version="1.1" viewBox="0 0 700 100" xmlns="http://www.w3.org/2000/svg">
 <g transform="matrix(.949 0 0 .941 28.1 -45.8)" fill="#f58368">
  <path d="m-14.7 51.8h707c6.68 0 12.1 5.38 12.1 12.1v75.9c0 6.68-5.38 12.1-12.1 12.1h-707c-6.72 0-12.1-5-12.1-11.6v-75.6c0-6.7 5.38-12.6 12.1-12.6z" color="#000000" color-rendering="auto" fill="#f58368" image-rendering="auto" shape-rendering="auto" solid-color="#000000" style="isolation:auto;mix-blend-mode:normal"/>
 </g>
 <g transform="matrix(1.03 0 0 1.03 27.3 7.06)" shape-rendering="auto" stroke-width="4.45">
  <rect x="16.9" y="15.2" width="10.5" height="53.1" color="#000000" color-rendering="auto" fill="#042d49" image-rendering="auto" solid-color="#000000" style="isolation:auto;mix-blend-mode:normal;paint-order:normal"/>
  <circle cx="50.2" cy="31.8" r="16.9" color="#000000" color-rendering="auto" fill="#fff" image-rendering="auto" solid-color="#000000" style="isolation:auto;mix-blend-mode:normal;paint-order:normal"/>
 </g>
 <g fill="#fff" stroke-width="3.57" aria-label="BECOME MY PATRON">
  <path d="m162 58.8c0-3.41-1.84-6.1-5.72-8.37 3.41-2.18 4.73-4.16 4.73-7.1 0-4.87-4.07-9.08-11.3-9.08h-15.4v34.5h15.5c8.04 0 12.1-4.26 12.1-9.93zm-7.8-14.7c0 2.51-1.75 3.88-5.01 3.88h-7.71v-7.8h7.71c3.26 0 5.01 1.37 5.01 3.93zm0.993 14.3c0 2.89-1.8 4.45-5.25 4.45h-8.47v-8.94h8.47c3.45 0 5.25 1.56 5.25 4.49z"/>
  <path d="m194 68.7v-5.91h-18.7v-8.94h16.5v-5.91h-16.5v-7.8h17.8v-5.91h-24.9v34.5z"/>
  <path d="m229 57h-6.91c-0.426 4.4-3.22 6.39-7.62 6.39-5.49 0-8.7-4.21-8.7-11.7 0-7.62 3.36-11.9 8.94-11.9 3.83 0 6.34 1.75 7.38 6.2h6.76c-0.615-7.95-6.62-12.3-14.4-12.3-9.74 0-15.8 6.67-15.8 17.8 0 11.1 6.01 17.8 15.6 17.8 8.56 0 14.3-4.45 14.7-12.3z"/>
  <path d="m265 51.7c0-10.4-6.57-18-16.6-18-10.1 0-16.6 7.9-16.6 17.8 0 10.3 6.48 17.8 16.6 17.8 10 0 16.6-7.52 16.6-17.6zm-7.1-0.0473c0 7.05-3.83 11.6-9.51 11.6-5.72 0-9.51-4.54-9.51-11.8 0-6.95 3.78-11.7 9.51-11.7 5.82 0 9.51 4.73 9.51 11.9z"/>
  <path d="m304 68.7v-34.5h-10.7l-6.05 27.4-6.24-27.4h-10.6v34.5h7.1v-26.9l6.2 26.9h7.1l6.1-26.9v26.9z"/>
  <path d="m336 68.7v-5.91h-18.7v-8.94h16.5v-5.91h-16.5v-7.8h17.8v-5.91h-24.9v34.5z"/>
  <path d="m388 68.7v-34.5h-10.7l-6.05 27.4-6.24-27.4h-10.6v34.5h7.1v-26.9l6.2 26.9h7.1l6.1-26.9v26.9z"/>
  <path d="m421 34.3h-7.95l-6.57 15.2-7.05-15.2h-7.9l11.4 21.7v12.8h7.1v-12.8z"/>
  <path d="m465 45c0-6.91-3.93-10.7-11.1-10.7h-15.2v34.5h7.1v-12.3h8.85c6.34 0 10.4-4.49 10.4-11.5zm-7.1 0.426c0 3.5-1.75 5.16-5.53 5.16h-6.62v-10.4h6.62c3.78 0 5.53 1.66 5.53 5.2z"/>
  <path d="m497 68.7-11.9-34.5h-7.85l-12.3 34.5h7.24l2.32-6.95h12.9l2.27 6.95zm-11.5-12.9h-8.99l4.49-13.5z"/>
  <path d="m522 40.2v-5.91h-27.6v5.91h10.5v28.6h7.1v-28.6z"/>
  <path d="m555 68.7v-1.28c-1.09-0.615-1.51-1.32-1.51-2.84-0.189-10.2-0.378-10.6-4.78-12.5 3.88-1.51 5.82-4.3 5.82-8.51 0-5.34-3.17-9.32-9.27-9.32h-18.5v34.5h7.1v-13.7h8.14c3.07 0 4.4 1.23 4.4 4.12l-0.0946 3.64c0 3.22 0.189 4.26 1.09 5.91zm-7.57-24.2c0 3.07-0.993 4.59-5.01 4.59h-8.56v-8.99h8.56c3.88 0 5.01 1.42 5.01 4.4z"/>
  <path d="m592 51.7c0-10.4-6.57-18-16.6-18-10.1 0-16.6 7.9-16.6 17.8 0 10.3 6.48 17.8 16.6 17.8 10 0 16.6-7.52 16.6-17.6zm-7.1-0.0473c0 7.05-3.83 11.6-9.51 11.6-5.72 0-9.51-4.54-9.51-11.8 0-6.95 3.78-11.7 9.51-11.7 5.82 0 9.51 4.73 9.51 11.9z"/>
  <path d="m625 68.7v-34.5h-7.1v23.5l-13.7-23.5h-7.28v34.5h7.1v-23.8l13.9 23.8z"/>
 </g>
</svg>
