<svg width="196" height="28" version="1.1" viewBox="0 0 700 100" xmlns="http://www.w3.org/2000/svg">
 <g transform="matrix(.949 0 0 .941 28.1 -45.8)" fill="#ec5768">
  <path d="m-14.7 51.8h707c6.68 0 12.1 5.38 12.1 12.1v75.9c0 6.68-5.38 12.1-12.1 12.1h-707c-6.72 0-12.1-5-12.1-11.6v-75.6c0-6.7 5.38-12.6 12.1-12.6z" color="#000000" color-rendering="auto" fill="#ec5768" image-rendering="auto" shape-rendering="auto" solid-color="#000000" style="isolation:auto;mix-blend-mode:normal"/>
 </g>
 <g fill="#fff" stroke-width="3.57" aria-label="SOUTENIR SUR ">
  <path d="m103 58.7c0-5.44-2.74-7.99-9.13-9.22l-5.39-1.04c-5.06-0.993-6.53-1.99-6.53-4.49 0-2.6 2.32-4.26 5.96-4.26 4.49 0 7.24 1.89 7.24 5.39h6.62c0-7.28-5.11-11.1-13.5-11.1-8.28 0-13.1 3.88-13.1 10.6 0 5.39 2.7 7.9 9.7 9.27l4.82 0.946c4.73 0.946 6.48 1.94 6.48 4.73 0 2.89-2.65 4.4-6.95 4.4-4.82 0-7.76-2.03-7.76-5.72h-6.91c0 7.38 5.49 11.4 14.3 11.4 8.89 0 14.1-3.93 14.1-10.9z"/>
  <path d="m140 52c0-10.4-6.57-18-16.6-18-10.1 0-16.6 7.9-16.6 17.8 0 10.3 6.48 17.8 16.6 17.8 10 0 16.6-7.52 16.6-17.6zm-7.1-0.0473c0 7.05-3.83 11.6-9.51 11.6-5.72 0-9.51-4.54-9.51-11.8 0-6.95 3.78-11.7 9.51-11.7 5.82 0 9.51 4.73 9.51 11.9z"/>
  <path d="m172 57.4v-22.8h-7.1v22.8c0 4.16-2.13 6.15-6.57 6.15s-6.57-1.99-6.57-6.15v-22.8h-7.1v22.8c0 8.14 5.77 12.2 13.7 12.2s13.7-4.07 13.7-12.2z"/>
  <path d="m204 40.5v-5.91h-27.6v5.91h10.5v28.6h7.1v-28.6z"/>
  <path d="m234 69v-5.91h-18.7v-8.94h16.5v-5.91h-16.5v-7.8h17.8v-5.91h-24.9v34.5z"/>
  <path d="m268 69v-34.5h-7.1v23.5l-13.7-23.5h-7.28v34.5h7.1v-23.8l13.9 23.8z"/>
  <path d="m280 69v-34.5h-7.1v34.5z"/>
  <path d="m316 69v-1.28c-1.09-0.615-1.51-1.32-1.51-2.84-0.189-10.2-0.378-10.6-4.78-12.5 3.88-1.51 5.82-4.3 5.82-8.51 0-5.34-3.17-9.32-9.27-9.32h-18.5v34.5h7.1v-13.7h8.14c3.07 0 4.4 1.23 4.4 4.12l-0.0946 3.64c0 3.22 0.189 4.26 1.09 5.91zm-7.57-24.2c0 3.07-0.993 4.59-5.01 4.59h-8.56v-8.99h8.56c3.88 0 5.01 1.42 5.01 4.4z"/>
  <path d="m361 58.7c0-5.44-2.74-7.99-9.13-9.22l-5.39-1.04c-5.06-0.993-6.53-1.99-6.53-4.49 0-2.6 2.32-4.26 5.96-4.26 4.49 0 7.24 1.89 7.24 5.39h6.62c0-7.28-5.11-11.1-13.5-11.1-8.28 0-13.1 3.88-13.1 10.6 0 5.39 2.7 7.9 9.7 9.27l4.82 0.946c4.73 0.946 6.48 1.94 6.48 4.73 0 2.89-2.65 4.4-6.95 4.4-4.82 0-7.76-2.03-7.76-5.72h-6.91c0 7.38 5.49 11.4 14.3 11.4 8.89 0 14.1-3.93 14.1-10.9z"/>
  <path d="m393 57.4v-22.8h-7.1v22.8c0 4.16-2.13 6.15-6.57 6.15s-6.57-1.99-6.57-6.15v-22.8h-7.1v22.8c0 8.14 5.77 12.2 13.7 12.2s13.7-4.07 13.7-12.2z"/>
  <path d="m429 69v-1.28c-1.09-0.615-1.51-1.32-1.51-2.84-0.189-10.2-0.378-10.6-4.78-12.5 3.88-1.51 5.82-4.3 5.82-8.51 0-5.34-3.17-9.32-9.27-9.32h-18.5v34.5h7.1v-13.7h8.14c3.07 0 4.4 1.23 4.4 4.12l-0.0946 3.64c0 3.22 0.189 4.26 1.09 5.91zm-7.57-24.2c0 3.07-0.993 4.59-5.01 4.59h-8.56v-8.99h8.56c3.88 0 5.01 1.42 5.01 4.4z"/>
 </g>
 <path d="m564 30.7c-5.17-0.177-9.7 2.74-13.3 6.63-3.6 3.89-6.44 8.92-8.28 14-1.03 2.87-1.72 5.75-2.01 8.52-1.65 1.06-3.29 2.09-4.74 2.87a3.04 3.04 0 1 0 2.87 5.35c0.688-0.369 1.47-0.898 2.19-1.32 0.466 2.01 1.28 3.92 2.77 5.39 1.65 1.64 4.02 2.6 6.6 2.68 6.7e-4 2.2e-5 1e-3 -2.1e-5 2e-3 0 4.37 0.147 9.02-1.89 13.8-4.62 0.32 0.563 0.543 1.17 1.02 1.65 1.69 1.7 4.19 2.45 6.87 2.36 5.26-0.17 11.1-2.73 17.2-6.25 0.134-0.0779 0.266-0.185 0.4-0.264 0.602 1.78 1.55 3.46 3.17 4.59 1.92 1.33 4.42 1.72 7.01 1.29 9.21-1.52 19.8-7.91 28.5-13.8 8.7-5.94 15.3-11.5 15.3-11.5a3.04 3.04 0 1 0-3.91-4.64s-6.42 5.41-14.8 11.2-19 11.7-26.1 12.9h-4e-3c-1.49 0.246-2.14 0.0043-2.56-0.289-0.423-0.293-0.837-0.844-1.12-1.99-0.0736-0.298 0.0145-0.856-0.0254-1.22 4.08-2.77 8.07-5.75 11.6-8.88 5.17-4.63 9.32-9.15 11.4-13.3 1.04-2.07 1.8-4.31 0.773-6.71-0.513-1.2-1.55-2.2-2.68-2.75-1.13-0.55-2.33-0.759-3.64-0.807l-6e-3 -2e-3h-6e-3c-5.3-0.175-9.92 2.8-13.5 6.74s-6.43 9-8.19 14.1c-1.01 2.89-1.65 5.75-1.87 8.48-0.911 0.575-1.82 1.27-2.72 1.79-5.65 3.27-11.1 5.34-14.4 5.44h-0.012c-1.55 0.0549-2.05-0.271-2.34-0.562-0.0759-0.0767-0.0927-0.444-0.166-0.57 4.87-3.3 9.72-7.17 13.9-11.2 4.96-4.8 9.01-9.59 11.2-13.8 1.09-2.09 1.91-4.05 1.47-6.42-0.218-1.18-0.935-2.44-1.98-3.22-1.04-0.781-2.24-1.1-3.45-1.2h-8e-3c-4.82-0.394-9.15 2.49-13.1 6.24-3.95 3.75-7.55 8.67-10.2 13.7-2.37 4.44-3.99 8.85-4.25 12.9-5.01 3.02-9.78 4.82-12.4 4.73h-4e-3l-2e-3 -2e-3c-1.34-0.0427-1.98-0.383-2.52-0.922-0.543-0.539-1.02-1.45-1.28-2.84-0.0947-0.508 0.0341-1.29 0.0117-1.9 6.11-4.18 12.5-9.35 17.3-14.3 3.47-3.58 6.15-6.76 7.13-10.3 0.489-1.76 0.367-4.12-1.13-5.73-1.49-1.61-3.53-2.07-5.78-2.15zm-0.209 6.07c1.17 0.0399 1.27 0.205 1.27 0.172-5e-3 0.0162-3e-3 -3.84e-4 -8e-3 0.0176-0.335 1.21-2.46 4.41-5.63 7.68-3.18 3.28-7.36 6.86-11.6 10.1 0.142-0.453 0.167-0.868 0.33-1.32 1.59-4.41 4.13-8.85 7.02-12 2.89-3.12 5.96-4.78 8.64-4.69zm25.7 0.566c-0.0622 0.315-0.0655 0.746-0.674 1.91-1.6 3.05-5.37 7.7-10 12.2-2.64 2.55-5.57 5.03-8.56 7.35 0.581-1.57 1.17-3.17 2.05-4.83 2.38-4.45 5.7-8.96 9.05-12.1 3.23-3.07 6.4-4.54 8.17-4.52zm22.6 0.434c0.518 0.0199 0.669 0.0889 0.852 0.143-0.0575-0.0319 0.0377 0.23-0.521 1.35-1.34 2.67-5.15 7.14-10 11.5-1.99 1.78-4.23 3.53-6.48 5.24 0.15-0.515 0.17-0.97 0.352-1.49 1.51-4.33 4.02-8.78 6.93-11.9 2.9-3.16 6.03-4.88 8.88-4.79z" color="#000000" color-rendering="auto" dominant-baseline="auto" fill="#fff" image-rendering="auto" shape-rendering="auto" solid-color="#000000" style="font-feature-settings:normal;font-variant-alternates:normal;font-variant-caps:normal;font-variant-ligatures:normal;font-variant-numeric:normal;font-variant-position:normal;isolation:auto;mix-blend-mode:normal;shape-padding:0;text-decoration-color:#000000;text-decoration-line:none;text-decoration-style:solid;text-indent:0;text-orientation:mixed;text-transform:none;white-space:normal"/>
 <g transform="matrix(1.3 0 0 1.3 445 1.02)" fill="#fff">
  <g transform="matrix(.634 0 0 1 2.69 -.678)" fill="#fff">
   <path d="m25.8 13.8-16.3 2.81v7.16h-4.41v8.25h4.64v19.2c0 2.49 4.62 6.54 9.26 6.54s15.3-2.03 17.8-2.96c0-2.96-0.485-8.1-0.485-8.1l-10.5 0.936v-15.4l10.7 0.155v-8.41h-10.7z" fill-rule="evenodd"/>
   <ellipse cx="55.9" cy="18.5" rx="6.55" ry="4.45" color="#000000" color-rendering="auto" image-rendering="auto" shape-rendering="auto" solid-color="#000000" style="isolation:auto;mix-blend-mode:normal;paint-order:normal"/>
   <path d="m44.2 29.2 17.7-4.09v23.1h5.58v7.94h-24.7l0.215-8.04h6.23v-11.1h-6.01z" fill-rule="evenodd"/>
   <path d="m87.2 25.6-16.6 0.134-0.192 8.65 4.75 0.272-0.379 26.1-4.39-0.541-0.189 7.57h23.2l-0.817-7.74h-4.9l0.189-4.32s10.2 0.692 13.5-0.675c18.8-7.84 8.95-27.2-2.67-27.5-9.99-0.232-11.4-0.406-11.4-0.406zm2.93 10.5c2.94 0 5.32 2.66 5.32 5.94s-2.38 5.94-5.32 5.94-5.32-2.66-5.32-5.94 2.38-5.94 5.32-5.94z" fill-rule="evenodd"/>
  </g>
 </g>
</svg>
