<svg xmlns:rdf="http://www.w3.org/1999/02/22-rdf-syntax-ns#" xmlns="http://www.w3.org/2000/svg" height="16" width="16" version="1.1" xmlns:cc="http://creativecommons.org/ns#" xmlns:dc="http://purl.org/dc/elements/1.1/" viewBox="0 0 100 100">
 <g transform="matrix(.0550 0 0 -.0550 10 85.8)">
  <path d="m768 1.41e3c364 9.28 708-282 759-642 50-305-100-634-370-788-258-158-614-142-856 46.2-237 176-355 497-286 785 67.2 309 352 569 673 589 25 10 51 10 77 10zm274-521c-8.1 23.3 68.1 39.5 98.8 27.4 63.8-8.36 86.3 79 15.9 87.2-33.7 23.6-57.9 86.2-107 51.2-32.6 28.4-104 105-130 32 8.53-46.7 9.17-92.2-15.1-133-32-30.9-57.1 55.6-96.7 57-44.7 0.562-107 28.4-101 81.3 18.3 41.9 68.9 55.3 105 78.2 39.4-7.12 79.1 61.9 20.6 51.8-43.1-46.4-89.9-0.067-122 34.2-51.6 21.4-16.3-30.4-11.8-54-45.1-29.7-106 9.82-138 37.4-23.9 9.05-103-35.1-42-12.7 60.3 6.12 25.4-38.7-14.1-31.5-57.4 18.5-100-22.7-140-57.6-52-50-101-100-137-161 17.9-42 100-57.7 80.6-110-24.4-66.7-13.3-158 51.8-197 47.5-36.3 64.5-135 107-150-8.43 24.2-58.3 107-8.6 63.1 62.5-65 80-174 172-207 85.4-15.7 172-56.9 216-135 32.4-20.8 61.7 15.3 15.3 21.6-26.6 40.6-7.24 122-79.4 110 23.1 49.3-16.5 101-48 37.9-50.6-32.1-89 35.9-83.4 80-6.84 51.2 28.4 98.8 81.8 99.6 57.7 18 110-1.82 140-52.9 35.1 8.29-22 77.3 21.9 103 50.1 31.8 35.4 105 94.4 130 26.9 39.5 122 52.8 93.6 110 50 18-30 23-40 4zm-161-879c134 22 259 89.9 351 189-69.7 35.6-137 95.6-220 85-57 28-102-49-94-99 2-57-48-112-37-175z"/>
 </g>
</svg>
