<?xml version="1.0" encoding="UTF-8" standalone="no"?>
<!-- Created with Inkscape (http://www.inkscape.org/) -->

<svg
   xmlns:dc="http://purl.org/dc/elements/1.1/"
   xmlns:cc="http://creativecommons.org/ns#"
   xmlns:rdf="http://www.w3.org/1999/02/22-rdf-syntax-ns#"
   xmlns:svg="http://www.w3.org/2000/svg"
   xmlns="http://www.w3.org/2000/svg"
   xmlns:xlink="http://www.w3.org/1999/xlink"
   xmlns:sodipodi="http://sodipodi.sourceforge.net/DTD/sodipodi-0.dtd"
   xmlns:inkscape="http://www.inkscape.org/namespaces/inkscape"
   id="svg2"
   version="1.1"
   inkscape:version="0.92.2 (5c3e80d, 2017-08-06)"
   width="2481"
   height="3503"
   sodipodi:docname="E01P01.svg">
  <metadata
     id="metadata8">
    <rdf:RDF>
      <cc:Work
         rdf:about="">
        <dc:format>image/svg+xml</dc:format>
        <dc:type
           rdf:resource="http://purl.org/dc/dcmitype/StillImage" />
        <dc:title />
      </cc:Work>
    </rdf:RDF>
  </metadata>
  <defs
     id="defs6" />
  <sodipodi:namedview
     pagecolor="#ffffff"
     bordercolor="#666666"
     borderopacity="1"
     objecttolerance="10"
     gridtolerance="10"
     guidetolerance="10"
     inkscape:pageopacity="0"
     inkscape:pageshadow="2"
     inkscape:window-width="1920"
     inkscape:window-height="1056"
     id="namedview4"
     showgrid="false"
     inkscape:zoom="0.2630065"
     inkscape:cx="1158.4044"
     inkscape:cy="1080.0792"
     inkscape:window-x="1920"
     inkscape:window-y="0"
     inkscape:window-maximized="1"
     inkscape:current-layer="layer1" />
  <g
     inkscape:groupmode="layer"
     id="layer2"
     inkscape:label="artwork"
     sodipodi:insensitive="true">
    <image
       sodipodi:absref="/home/deevad/peppercarrot/webcomics/New/lang/en/../gfx_Pepper-and-Carrot_by-David-Revoy_E01P01.png"
       xlink:href="../gfx_Pepper-and-Carrot_by-David-Revoy_E01P01.png"
       width="2481"
       height="3503"
       id="image10"
       x="0"
       y="0" />
  </g>
  <g
     inkscape:groupmode="layer"
     id="layer3"
     inkscape:label="speechbubbles" />
  <g
     inkscape:groupmode="layer"
     id="layer1"
     inkscape:label="txt">
    <path
       style="color:#000000;display:inline;overflow:visible;visibility:visible;fill:#ffffff;fill-opacity:1;fill-rule:nonzero;stroke:none;stroke-width:1px;marker:none;enable-background:accumulate"
       d="m 1020.0832,446.93545 c 25.9187,-41.48648 80.4373,-76.37285 151.937,-90.51597 71.4998,-14.14312 203.7744,-10.37167 227.012,-5.65723 23.2373,4.71434 151.0431,21.68602 178.7492,45.25793 27.7063,23.57191 65.2436,52.80104 73.2874,82.97296 8.0439,30.17202 0.8937,102.77342 -25.0249,118.80232 -25.9187,16.0289 -143.8933,50.91526 -212.7119,52.80093 -68.8187,1.88578 -228.7992,-13.20023 -274.3804,-23.57179 -45.5811,-10.37168 -93.8435,-23.57191 -108.1434,-56.5725 -14.3,-33.00069 -41.11247,-76.37295 -10.725,-123.51665 z"
       id="path3533"
       inkscape:connector-curvature="0" />
    <path
       style="color:#000000;display:inline;overflow:visible;visibility:visible;fill:#ffffff;fill-opacity:1;fill-rule:nonzero;stroke:none;stroke-width:1px;marker:none;enable-background:accumulate"
       d="m 1195.822,959.39888 c 155.8229,-64.3917 195.397,-234.8936 178.9078,-329.2138 -16.4892,-94.3202 -37.1007,-38.9977 -37.1007,-38.9977 l -4.1223,33.5562 c 0,0 64.3079,243.0558 -137.6848,334.6553 z"
       id="path3541"
       inkscape:connector-curvature="0" />
    <text
       xml:space="preserve"
       style="font-style:normal;font-variant:normal;font-weight:normal;font-stretch:normal;line-height:0%;font-family:Lavi;-inkscape-font-specification:Lavi;text-align:center;letter-spacing:0px;word-spacing:0px;text-anchor:middle;fill:#000000;fill-opacity:1;stroke:none"
       x="1335.7354"
       y="437.16296"
       id="text4246"><tspan
         sodipodi:role="line"
         style="font-size:45px;line-height:1.25"
         x="1335.7354"
         y="437.16296"
         id="tspan4252">welcome to</tspan><tspan
         sodipodi:role="line"
         style="font-size:45px;line-height:1.25"
         x="1335.7354"
         y="493.41296"
         id="tspan831">this <tspan
   style="-inkscape-font-specification:'Lavi Bold, ';font-family:'Lavi Bold';font-weight:normal;font-style:normal;font-stretch:normal;font-variant:normal"
   id="tspan837">ORANGE</tspan> place holder</tspan><tspan
         sodipodi:role="line"
         style="font-size:45px;line-height:1.25"
         x="1335.7354"
         y="549.66296"
         id="tspan835">graphic in</tspan><tspan
         sodipodi:role="line"
         style="font-size:45px;line-height:1.25"
         x="1335.7354"
         y="605.91296"
         id="tspan833">english.</tspan></text>
    <path
       style="fill:none;fill-rule:evenodd;stroke:#000000;stroke-width:1px;stroke-linecap:butt;stroke-linejoin:miter;stroke-opacity:1"
       d="M 1279.7731,2347.9906 2379.9621,3402.811"
       id="path892"
       inkscape:connector-curvature="0" />
    <path
       style="fill:none;fill-rule:evenodd;stroke:#000000;stroke-width:1px;stroke-linecap:butt;stroke-linejoin:miter;stroke-opacity:1"
       d="M 2379.9621,2347.9906 1279.7731,3402.811"
       id="path894"
       inkscape:connector-curvature="0" />
    <path
       style="display:inline;fill:#ffffff;fill-rule:evenodd;stroke:none;stroke-width:1px;stroke-linecap:butt;stroke-linejoin:miter;stroke-opacity:1"
       d="m 1541.2233,2695.8902 c 72.7623,40.6386 114.2087,24.1126 112.9598,-70.3504 34.7144,102.0788 58.8046,124.9089 73.0917,74.6141 45.9596,43.2305 74.6653,31.104 97.4556,0 8.4946,40.0019 26.7112,23.8598 42.4767,21.8728 5.1925,9.0501 -12.6416,31.5347 59.4086,1.5774 4.6671,11.9788 10.9541,22.2945 53.1575,-4.2637 10.9336,48.6207 46.0136,-2.6947 81.9514,-57.5595 -22.3902,67.4516 -13.1059,76.9788 15.5044,51.1639 -13.0805,27.7772 -20.9038,49.2798 28.7935,2.1319 -17.0138,51.271 27.6221,16.0788 99.6706,-57.5594 -36.0398,54.4329 -131.6092,146.1753 -68.6619,138.569 -8.7784,16.0469 -40.0904,30.0283 53.1576,55.4276 -17.4082,10.8891 -70.5547,-5.0232 -26.2209,41.0818 5.9398,5.3893 -13.9452,8.6803 24.006,22.873 -22.403,-0.9654 -36.1422,2.4839 -15.5043,23.4502 -40.8938,-1.1337 -25.5931,20.9127 4.4298,49.032 -59.22,-36.0691 -62.479,-22.96 -64.2322,-8.5272 -74.22,-49.1745 -78.5768,-33.6922 -88.5958,-23.4502 -36.1767,0.3837 -72.3535,-5.8089 -108.5302,49.0322 -9.4743,-34.1097 -28.4689,-60.3652 -108.53,-36.2411 35.153,-43.3935 -14.8568,-15.7473 -53.1575,2.1317 20.9742,-54.2091 -32.2557,-18.6318 -99.6706,34.1094 37.752,-59.8622 -5.1254,-38.2386 -68.6619,4.2637 24.006,-58.8086 -15.0902,-87.2492 -108.5302,-89.537 44.7233,-21.213 70.8034,-47.9089 24.3641,-95.9324 52.3503,14.1407 67.9657,1.0059 31.0085,-51.1639 57.1003,42.8206 31.1389,-19.2886 8.8597,-76.7459 z"
       id="path4508"
       inkscape:connector-curvature="0"
       sodipodi:nodetypes="cccccccccccccccccccccccccccc" />
    <text
       xml:space="preserve"
       style="font-style:normal;font-variant:normal;font-weight:normal;font-stretch:normal;line-height:0%;font-family:Lavi;-inkscape-font-specification:Lavi;text-align:center;letter-spacing:0px;word-spacing:0px;text-anchor:middle;fill:#000000;fill-opacity:1;stroke:none"
       x="1847.6124"
       y="2805.4448"
       id="text4246-6"><tspan
         sodipodi:role="line"
         style="font-size:45px;line-height:1.25"
         x="1847.6124"
         y="2805.4448"
         id="tspan833-1">I'm centered over</tspan><tspan
         sodipodi:role="line"
         style="font-size:45px;line-height:1.25"
         x="1847.6124"
         y="2861.6948"
         id="tspan886">the last panel of</tspan><tspan
         sodipodi:role="line"
         style="font-size:45px;line-height:1.25"
         x="1847.6124"
         y="2917.9448"
         id="tspan888">page 1</tspan></text>
  </g>
</svg>
